<mxfile host="Electron" modified="2024-04-22T10:02:12.880Z" agent="Mozilla/5.0 (Windows NT 10.0; Win64; x64) AppleWebKit/537.36 (KHTML, like Gecko) draw.io/23.1.5 Chrome/120.0.6099.109 Electron/28.1.0 Safari/537.36" etag="kfHs1P4LGTZKfv_kMES2" version="23.1.5" type="device" pages="4">
  <diagram name="ER-диаграмма" id="jzw8TumCiu7HLxcAPF0E">
    <mxGraphModel dx="1787" dy="704" grid="1" gridSize="10" guides="1" tooltips="1" connect="1" arrows="1" fold="1" page="1" pageScale="1" pageWidth="827" pageHeight="1169" math="0" shadow="0">
      <root>
        <mxCell id="0" />
        <mxCell id="1" parent="0" />
        <mxCell id="V6S02QR5TwxQ0OYpGDw6-1" value="service_group" style="shape=table;startSize=30;container=1;collapsible=1;childLayout=tableLayout;fixedRows=1;rowLines=0;fontStyle=1;align=center;resizeLast=1;html=1;" parent="1" vertex="1">
          <mxGeometry x="-208" y="720" width="180" height="90" as="geometry" />
        </mxCell>
        <mxCell id="V6S02QR5TwxQ0OYpGDw6-2" value="" style="shape=tableRow;horizontal=0;startSize=0;swimlaneHead=0;swimlaneBody=0;fillColor=none;collapsible=0;dropTarget=0;points=[[0,0.5],[1,0.5]];portConstraint=eastwest;top=0;left=0;right=0;bottom=1;" parent="V6S02QR5TwxQ0OYpGDw6-1" vertex="1">
          <mxGeometry y="30" width="180" height="30" as="geometry" />
        </mxCell>
        <mxCell id="V6S02QR5TwxQ0OYpGDw6-3" value="PK" style="shape=partialRectangle;connectable=0;fillColor=none;top=0;left=0;bottom=0;right=0;fontStyle=1;overflow=hidden;whiteSpace=wrap;html=1;" parent="V6S02QR5TwxQ0OYpGDw6-2" vertex="1">
          <mxGeometry width="30" height="30" as="geometry">
            <mxRectangle width="30" height="30" as="alternateBounds" />
          </mxGeometry>
        </mxCell>
        <mxCell id="V6S02QR5TwxQ0OYpGDw6-4" value="service_group_id" style="shape=partialRectangle;connectable=0;fillColor=none;top=0;left=0;bottom=0;right=0;align=left;spacingLeft=6;fontStyle=5;overflow=hidden;whiteSpace=wrap;html=1;" parent="V6S02QR5TwxQ0OYpGDw6-2" vertex="1">
          <mxGeometry x="30" width="150" height="30" as="geometry">
            <mxRectangle width="150" height="30" as="alternateBounds" />
          </mxGeometry>
        </mxCell>
        <mxCell id="V6S02QR5TwxQ0OYpGDw6-5" value="" style="shape=tableRow;horizontal=0;startSize=0;swimlaneHead=0;swimlaneBody=0;fillColor=none;collapsible=0;dropTarget=0;points=[[0,0.5],[1,0.5]];portConstraint=eastwest;top=0;left=0;right=0;bottom=0;" parent="V6S02QR5TwxQ0OYpGDw6-1" vertex="1">
          <mxGeometry y="60" width="180" height="30" as="geometry" />
        </mxCell>
        <mxCell id="V6S02QR5TwxQ0OYpGDw6-6" value="" style="shape=partialRectangle;connectable=0;fillColor=none;top=0;left=0;bottom=0;right=0;editable=1;overflow=hidden;whiteSpace=wrap;html=1;" parent="V6S02QR5TwxQ0OYpGDw6-5" vertex="1">
          <mxGeometry width="30" height="30" as="geometry">
            <mxRectangle width="30" height="30" as="alternateBounds" />
          </mxGeometry>
        </mxCell>
        <mxCell id="V6S02QR5TwxQ0OYpGDw6-7" value="service_group" style="shape=partialRectangle;connectable=0;fillColor=none;top=0;left=0;bottom=0;right=0;align=left;spacingLeft=6;overflow=hidden;whiteSpace=wrap;html=1;" parent="V6S02QR5TwxQ0OYpGDw6-5" vertex="1">
          <mxGeometry x="30" width="150" height="30" as="geometry">
            <mxRectangle width="150" height="30" as="alternateBounds" />
          </mxGeometry>
        </mxCell>
        <mxCell id="V6S02QR5TwxQ0OYpGDw6-14" value="services" style="shape=table;startSize=30;container=1;collapsible=1;childLayout=tableLayout;fixedRows=1;rowLines=0;fontStyle=1;align=center;resizeLast=1;html=1;" parent="1" vertex="1">
          <mxGeometry x="-208" y="475" width="180" height="180" as="geometry" />
        </mxCell>
        <mxCell id="V6S02QR5TwxQ0OYpGDw6-15" value="" style="shape=tableRow;horizontal=0;startSize=0;swimlaneHead=0;swimlaneBody=0;fillColor=none;collapsible=0;dropTarget=0;points=[[0,0.5],[1,0.5]];portConstraint=eastwest;top=0;left=0;right=0;bottom=1;" parent="V6S02QR5TwxQ0OYpGDw6-14" vertex="1">
          <mxGeometry y="30" width="180" height="30" as="geometry" />
        </mxCell>
        <mxCell id="V6S02QR5TwxQ0OYpGDw6-16" value="PK" style="shape=partialRectangle;connectable=0;fillColor=none;top=0;left=0;bottom=0;right=0;fontStyle=1;overflow=hidden;whiteSpace=wrap;html=1;" parent="V6S02QR5TwxQ0OYpGDw6-15" vertex="1">
          <mxGeometry width="30" height="30" as="geometry">
            <mxRectangle width="30" height="30" as="alternateBounds" />
          </mxGeometry>
        </mxCell>
        <mxCell id="V6S02QR5TwxQ0OYpGDw6-17" value="service_id" style="shape=partialRectangle;connectable=0;fillColor=none;top=0;left=0;bottom=0;right=0;align=left;spacingLeft=6;fontStyle=5;overflow=hidden;whiteSpace=wrap;html=1;" parent="V6S02QR5TwxQ0OYpGDw6-15" vertex="1">
          <mxGeometry x="30" width="150" height="30" as="geometry">
            <mxRectangle width="150" height="30" as="alternateBounds" />
          </mxGeometry>
        </mxCell>
        <mxCell id="V6S02QR5TwxQ0OYpGDw6-18" value="" style="shape=tableRow;horizontal=0;startSize=0;swimlaneHead=0;swimlaneBody=0;fillColor=none;collapsible=0;dropTarget=0;points=[[0,0.5],[1,0.5]];portConstraint=eastwest;top=0;left=0;right=0;bottom=0;" parent="V6S02QR5TwxQ0OYpGDw6-14" vertex="1">
          <mxGeometry y="60" width="180" height="30" as="geometry" />
        </mxCell>
        <mxCell id="V6S02QR5TwxQ0OYpGDw6-19" value="FK" style="shape=partialRectangle;connectable=0;fillColor=none;top=0;left=0;bottom=0;right=0;editable=1;overflow=hidden;whiteSpace=wrap;html=1;" parent="V6S02QR5TwxQ0OYpGDw6-18" vertex="1">
          <mxGeometry width="30" height="30" as="geometry">
            <mxRectangle width="30" height="30" as="alternateBounds" />
          </mxGeometry>
        </mxCell>
        <mxCell id="V6S02QR5TwxQ0OYpGDw6-20" value="service_group_id" style="shape=partialRectangle;connectable=0;fillColor=none;top=0;left=0;bottom=0;right=0;align=left;spacingLeft=6;overflow=hidden;whiteSpace=wrap;html=1;" parent="V6S02QR5TwxQ0OYpGDw6-18" vertex="1">
          <mxGeometry x="30" width="150" height="30" as="geometry">
            <mxRectangle width="150" height="30" as="alternateBounds" />
          </mxGeometry>
        </mxCell>
        <mxCell id="V6S02QR5TwxQ0OYpGDw6-21" value="" style="shape=tableRow;horizontal=0;startSize=0;swimlaneHead=0;swimlaneBody=0;fillColor=none;collapsible=0;dropTarget=0;points=[[0,0.5],[1,0.5]];portConstraint=eastwest;top=0;left=0;right=0;bottom=0;" parent="V6S02QR5TwxQ0OYpGDw6-14" vertex="1">
          <mxGeometry y="90" width="180" height="30" as="geometry" />
        </mxCell>
        <mxCell id="V6S02QR5TwxQ0OYpGDw6-22" value="" style="shape=partialRectangle;connectable=0;fillColor=none;top=0;left=0;bottom=0;right=0;editable=1;overflow=hidden;whiteSpace=wrap;html=1;" parent="V6S02QR5TwxQ0OYpGDw6-21" vertex="1">
          <mxGeometry width="30" height="30" as="geometry">
            <mxRectangle width="30" height="30" as="alternateBounds" />
          </mxGeometry>
        </mxCell>
        <mxCell id="V6S02QR5TwxQ0OYpGDw6-23" value="service_name" style="shape=partialRectangle;connectable=0;fillColor=none;top=0;left=0;bottom=0;right=0;align=left;spacingLeft=6;overflow=hidden;whiteSpace=wrap;html=1;" parent="V6S02QR5TwxQ0OYpGDw6-21" vertex="1">
          <mxGeometry x="30" width="150" height="30" as="geometry">
            <mxRectangle width="150" height="30" as="alternateBounds" />
          </mxGeometry>
        </mxCell>
        <mxCell id="V6S02QR5TwxQ0OYpGDw6-24" value="" style="shape=tableRow;horizontal=0;startSize=0;swimlaneHead=0;swimlaneBody=0;fillColor=none;collapsible=0;dropTarget=0;points=[[0,0.5],[1,0.5]];portConstraint=eastwest;top=0;left=0;right=0;bottom=0;" parent="V6S02QR5TwxQ0OYpGDw6-14" vertex="1">
          <mxGeometry y="120" width="180" height="30" as="geometry" />
        </mxCell>
        <mxCell id="V6S02QR5TwxQ0OYpGDw6-25" value="" style="shape=partialRectangle;connectable=0;fillColor=none;top=0;left=0;bottom=0;right=0;editable=1;overflow=hidden;whiteSpace=wrap;html=1;" parent="V6S02QR5TwxQ0OYpGDw6-24" vertex="1">
          <mxGeometry width="30" height="30" as="geometry">
            <mxRectangle width="30" height="30" as="alternateBounds" />
          </mxGeometry>
        </mxCell>
        <mxCell id="V6S02QR5TwxQ0OYpGDw6-26" value="description" style="shape=partialRectangle;connectable=0;fillColor=none;top=0;left=0;bottom=0;right=0;align=left;spacingLeft=6;overflow=hidden;whiteSpace=wrap;html=1;" parent="V6S02QR5TwxQ0OYpGDw6-24" vertex="1">
          <mxGeometry x="30" width="150" height="30" as="geometry">
            <mxRectangle width="150" height="30" as="alternateBounds" />
          </mxGeometry>
        </mxCell>
        <mxCell id="V6S02QR5TwxQ0OYpGDw6-132" value="" style="shape=tableRow;horizontal=0;startSize=0;swimlaneHead=0;swimlaneBody=0;fillColor=none;collapsible=0;dropTarget=0;points=[[0,0.5],[1,0.5]];portConstraint=eastwest;top=0;left=0;right=0;bottom=0;" parent="V6S02QR5TwxQ0OYpGDw6-14" vertex="1">
          <mxGeometry y="150" width="180" height="30" as="geometry" />
        </mxCell>
        <mxCell id="V6S02QR5TwxQ0OYpGDw6-133" value="" style="shape=partialRectangle;connectable=0;fillColor=none;top=0;left=0;bottom=0;right=0;editable=1;overflow=hidden;" parent="V6S02QR5TwxQ0OYpGDw6-132" vertex="1">
          <mxGeometry width="30" height="30" as="geometry">
            <mxRectangle width="30" height="30" as="alternateBounds" />
          </mxGeometry>
        </mxCell>
        <mxCell id="V6S02QR5TwxQ0OYpGDw6-134" value="price" style="shape=partialRectangle;connectable=0;fillColor=none;top=0;left=0;bottom=0;right=0;align=left;spacingLeft=6;overflow=hidden;" parent="V6S02QR5TwxQ0OYpGDw6-132" vertex="1">
          <mxGeometry x="30" width="150" height="30" as="geometry">
            <mxRectangle width="150" height="30" as="alternateBounds" />
          </mxGeometry>
        </mxCell>
        <mxCell id="V6S02QR5TwxQ0OYpGDw6-27" value="appointment_status" style="shape=table;startSize=30;container=1;collapsible=1;childLayout=tableLayout;fixedRows=1;rowLines=0;fontStyle=1;align=center;resizeLast=1;html=1;" parent="1" vertex="1">
          <mxGeometry x="-488" y="720" width="180" height="90" as="geometry" />
        </mxCell>
        <mxCell id="V6S02QR5TwxQ0OYpGDw6-28" value="" style="shape=tableRow;horizontal=0;startSize=0;swimlaneHead=0;swimlaneBody=0;fillColor=none;collapsible=0;dropTarget=0;points=[[0,0.5],[1,0.5]];portConstraint=eastwest;top=0;left=0;right=0;bottom=1;" parent="V6S02QR5TwxQ0OYpGDw6-27" vertex="1">
          <mxGeometry y="30" width="180" height="30" as="geometry" />
        </mxCell>
        <mxCell id="V6S02QR5TwxQ0OYpGDw6-29" value="PK" style="shape=partialRectangle;connectable=0;fillColor=none;top=0;left=0;bottom=0;right=0;fontStyle=1;overflow=hidden;whiteSpace=wrap;html=1;" parent="V6S02QR5TwxQ0OYpGDw6-28" vertex="1">
          <mxGeometry width="30" height="30" as="geometry">
            <mxRectangle width="30" height="30" as="alternateBounds" />
          </mxGeometry>
        </mxCell>
        <mxCell id="V6S02QR5TwxQ0OYpGDw6-30" value="status_id" style="shape=partialRectangle;connectable=0;fillColor=none;top=0;left=0;bottom=0;right=0;align=left;spacingLeft=6;fontStyle=5;overflow=hidden;whiteSpace=wrap;html=1;" parent="V6S02QR5TwxQ0OYpGDw6-28" vertex="1">
          <mxGeometry x="30" width="150" height="30" as="geometry">
            <mxRectangle width="150" height="30" as="alternateBounds" />
          </mxGeometry>
        </mxCell>
        <mxCell id="V6S02QR5TwxQ0OYpGDw6-31" value="" style="shape=tableRow;horizontal=0;startSize=0;swimlaneHead=0;swimlaneBody=0;fillColor=none;collapsible=0;dropTarget=0;points=[[0,0.5],[1,0.5]];portConstraint=eastwest;top=0;left=0;right=0;bottom=0;" parent="V6S02QR5TwxQ0OYpGDw6-27" vertex="1">
          <mxGeometry y="60" width="180" height="30" as="geometry" />
        </mxCell>
        <mxCell id="V6S02QR5TwxQ0OYpGDw6-32" value="" style="shape=partialRectangle;connectable=0;fillColor=none;top=0;left=0;bottom=0;right=0;editable=1;overflow=hidden;whiteSpace=wrap;html=1;" parent="V6S02QR5TwxQ0OYpGDw6-31" vertex="1">
          <mxGeometry width="30" height="30" as="geometry">
            <mxRectangle width="30" height="30" as="alternateBounds" />
          </mxGeometry>
        </mxCell>
        <mxCell id="V6S02QR5TwxQ0OYpGDw6-33" value="status" style="shape=partialRectangle;connectable=0;fillColor=none;top=0;left=0;bottom=0;right=0;align=left;spacingLeft=6;overflow=hidden;whiteSpace=wrap;html=1;" parent="V6S02QR5TwxQ0OYpGDw6-31" vertex="1">
          <mxGeometry x="30" width="150" height="30" as="geometry">
            <mxRectangle width="150" height="30" as="alternateBounds" />
          </mxGeometry>
        </mxCell>
        <mxCell id="V6S02QR5TwxQ0OYpGDw6-40" value="users" style="shape=table;startSize=30;container=1;collapsible=1;childLayout=tableLayout;fixedRows=1;rowLines=0;fontStyle=1;align=center;resizeLast=1;html=1;" parent="1" vertex="1">
          <mxGeometry x="-758" y="600" width="180" height="210" as="geometry" />
        </mxCell>
        <mxCell id="V6S02QR5TwxQ0OYpGDw6-41" value="" style="shape=tableRow;horizontal=0;startSize=0;swimlaneHead=0;swimlaneBody=0;fillColor=none;collapsible=0;dropTarget=0;points=[[0,0.5],[1,0.5]];portConstraint=eastwest;top=0;left=0;right=0;bottom=1;" parent="V6S02QR5TwxQ0OYpGDw6-40" vertex="1">
          <mxGeometry y="30" width="180" height="30" as="geometry" />
        </mxCell>
        <mxCell id="V6S02QR5TwxQ0OYpGDw6-42" value="PK" style="shape=partialRectangle;connectable=0;fillColor=none;top=0;left=0;bottom=0;right=0;fontStyle=1;overflow=hidden;whiteSpace=wrap;html=1;" parent="V6S02QR5TwxQ0OYpGDw6-41" vertex="1">
          <mxGeometry width="30" height="30" as="geometry">
            <mxRectangle width="30" height="30" as="alternateBounds" />
          </mxGeometry>
        </mxCell>
        <mxCell id="V6S02QR5TwxQ0OYpGDw6-43" value="user_id" style="shape=partialRectangle;connectable=0;fillColor=none;top=0;left=0;bottom=0;right=0;align=left;spacingLeft=6;fontStyle=5;overflow=hidden;whiteSpace=wrap;html=1;" parent="V6S02QR5TwxQ0OYpGDw6-41" vertex="1">
          <mxGeometry x="30" width="150" height="30" as="geometry">
            <mxRectangle width="150" height="30" as="alternateBounds" />
          </mxGeometry>
        </mxCell>
        <mxCell id="V6S02QR5TwxQ0OYpGDw6-44" value="" style="shape=tableRow;horizontal=0;startSize=0;swimlaneHead=0;swimlaneBody=0;fillColor=none;collapsible=0;dropTarget=0;points=[[0,0.5],[1,0.5]];portConstraint=eastwest;top=0;left=0;right=0;bottom=0;" parent="V6S02QR5TwxQ0OYpGDw6-40" vertex="1">
          <mxGeometry y="60" width="180" height="30" as="geometry" />
        </mxCell>
        <mxCell id="V6S02QR5TwxQ0OYpGDw6-45" value="" style="shape=partialRectangle;connectable=0;fillColor=none;top=0;left=0;bottom=0;right=0;editable=1;overflow=hidden;whiteSpace=wrap;html=1;" parent="V6S02QR5TwxQ0OYpGDw6-44" vertex="1">
          <mxGeometry width="30" height="30" as="geometry">
            <mxRectangle width="30" height="30" as="alternateBounds" />
          </mxGeometry>
        </mxCell>
        <mxCell id="V6S02QR5TwxQ0OYpGDw6-46" value="user_name" style="shape=partialRectangle;connectable=0;fillColor=none;top=0;left=0;bottom=0;right=0;align=left;spacingLeft=6;overflow=hidden;whiteSpace=wrap;html=1;" parent="V6S02QR5TwxQ0OYpGDw6-44" vertex="1">
          <mxGeometry x="30" width="150" height="30" as="geometry">
            <mxRectangle width="150" height="30" as="alternateBounds" />
          </mxGeometry>
        </mxCell>
        <mxCell id="V6S02QR5TwxQ0OYpGDw6-47" value="" style="shape=tableRow;horizontal=0;startSize=0;swimlaneHead=0;swimlaneBody=0;fillColor=none;collapsible=0;dropTarget=0;points=[[0,0.5],[1,0.5]];portConstraint=eastwest;top=0;left=0;right=0;bottom=0;" parent="V6S02QR5TwxQ0OYpGDw6-40" vertex="1">
          <mxGeometry y="90" width="180" height="30" as="geometry" />
        </mxCell>
        <mxCell id="V6S02QR5TwxQ0OYpGDw6-48" value="" style="shape=partialRectangle;connectable=0;fillColor=none;top=0;left=0;bottom=0;right=0;editable=1;overflow=hidden;whiteSpace=wrap;html=1;" parent="V6S02QR5TwxQ0OYpGDw6-47" vertex="1">
          <mxGeometry width="30" height="30" as="geometry">
            <mxRectangle width="30" height="30" as="alternateBounds" />
          </mxGeometry>
        </mxCell>
        <mxCell id="V6S02QR5TwxQ0OYpGDw6-49" value="user_phone_number" style="shape=partialRectangle;connectable=0;fillColor=none;top=0;left=0;bottom=0;right=0;align=left;spacingLeft=6;overflow=hidden;whiteSpace=wrap;html=1;" parent="V6S02QR5TwxQ0OYpGDw6-47" vertex="1">
          <mxGeometry x="30" width="150" height="30" as="geometry">
            <mxRectangle width="150" height="30" as="alternateBounds" />
          </mxGeometry>
        </mxCell>
        <mxCell id="V6S02QR5TwxQ0OYpGDw6-50" value="" style="shape=tableRow;horizontal=0;startSize=0;swimlaneHead=0;swimlaneBody=0;fillColor=none;collapsible=0;dropTarget=0;points=[[0,0.5],[1,0.5]];portConstraint=eastwest;top=0;left=0;right=0;bottom=0;" parent="V6S02QR5TwxQ0OYpGDw6-40" vertex="1">
          <mxGeometry y="120" width="180" height="30" as="geometry" />
        </mxCell>
        <mxCell id="V6S02QR5TwxQ0OYpGDw6-51" value="" style="shape=partialRectangle;connectable=0;fillColor=none;top=0;left=0;bottom=0;right=0;editable=1;overflow=hidden;whiteSpace=wrap;html=1;" parent="V6S02QR5TwxQ0OYpGDw6-50" vertex="1">
          <mxGeometry width="30" height="30" as="geometry">
            <mxRectangle width="30" height="30" as="alternateBounds" />
          </mxGeometry>
        </mxCell>
        <mxCell id="V6S02QR5TwxQ0OYpGDw6-52" value="user_email" style="shape=partialRectangle;connectable=0;fillColor=none;top=0;left=0;bottom=0;right=0;align=left;spacingLeft=6;overflow=hidden;whiteSpace=wrap;html=1;" parent="V6S02QR5TwxQ0OYpGDw6-50" vertex="1">
          <mxGeometry x="30" width="150" height="30" as="geometry">
            <mxRectangle width="150" height="30" as="alternateBounds" />
          </mxGeometry>
        </mxCell>
        <mxCell id="V6S02QR5TwxQ0OYpGDw6-126" value="" style="shape=tableRow;horizontal=0;startSize=0;swimlaneHead=0;swimlaneBody=0;fillColor=none;collapsible=0;dropTarget=0;points=[[0,0.5],[1,0.5]];portConstraint=eastwest;top=0;left=0;right=0;bottom=0;" parent="V6S02QR5TwxQ0OYpGDw6-40" vertex="1">
          <mxGeometry y="150" width="180" height="30" as="geometry" />
        </mxCell>
        <mxCell id="V6S02QR5TwxQ0OYpGDw6-127" value="" style="shape=partialRectangle;connectable=0;fillColor=none;top=0;left=0;bottom=0;right=0;editable=1;overflow=hidden;" parent="V6S02QR5TwxQ0OYpGDw6-126" vertex="1">
          <mxGeometry width="30" height="30" as="geometry">
            <mxRectangle width="30" height="30" as="alternateBounds" />
          </mxGeometry>
        </mxCell>
        <mxCell id="V6S02QR5TwxQ0OYpGDw6-128" value="user_password" style="shape=partialRectangle;connectable=0;fillColor=none;top=0;left=0;bottom=0;right=0;align=left;spacingLeft=6;overflow=hidden;" parent="V6S02QR5TwxQ0OYpGDw6-126" vertex="1">
          <mxGeometry x="30" width="150" height="30" as="geometry">
            <mxRectangle width="150" height="30" as="alternateBounds" />
          </mxGeometry>
        </mxCell>
        <mxCell id="V6S02QR5TwxQ0OYpGDw6-129" value="" style="shape=tableRow;horizontal=0;startSize=0;swimlaneHead=0;swimlaneBody=0;fillColor=none;collapsible=0;dropTarget=0;points=[[0,0.5],[1,0.5]];portConstraint=eastwest;top=0;left=0;right=0;bottom=0;" parent="V6S02QR5TwxQ0OYpGDw6-40" vertex="1">
          <mxGeometry y="180" width="180" height="30" as="geometry" />
        </mxCell>
        <mxCell id="V6S02QR5TwxQ0OYpGDw6-130" value="" style="shape=partialRectangle;connectable=0;fillColor=none;top=0;left=0;bottom=0;right=0;editable=1;overflow=hidden;" parent="V6S02QR5TwxQ0OYpGDw6-129" vertex="1">
          <mxGeometry width="30" height="30" as="geometry">
            <mxRectangle width="30" height="30" as="alternateBounds" />
          </mxGeometry>
        </mxCell>
        <mxCell id="V6S02QR5TwxQ0OYpGDw6-131" value="role" style="shape=partialRectangle;connectable=0;fillColor=none;top=0;left=0;bottom=0;right=0;align=left;spacingLeft=6;overflow=hidden;" parent="V6S02QR5TwxQ0OYpGDw6-129" vertex="1">
          <mxGeometry x="30" width="150" height="30" as="geometry">
            <mxRectangle width="150" height="30" as="alternateBounds" />
          </mxGeometry>
        </mxCell>
        <mxCell id="V6S02QR5TwxQ0OYpGDw6-53" value="master" style="shape=table;startSize=30;container=1;collapsible=1;childLayout=tableLayout;fixedRows=1;rowLines=0;fontStyle=1;align=center;resizeLast=1;html=1;" parent="1" vertex="1">
          <mxGeometry x="-758" y="350" width="180" height="180" as="geometry" />
        </mxCell>
        <mxCell id="V6S02QR5TwxQ0OYpGDw6-54" value="" style="shape=tableRow;horizontal=0;startSize=0;swimlaneHead=0;swimlaneBody=0;fillColor=none;collapsible=0;dropTarget=0;points=[[0,0.5],[1,0.5]];portConstraint=eastwest;top=0;left=0;right=0;bottom=1;" parent="V6S02QR5TwxQ0OYpGDw6-53" vertex="1">
          <mxGeometry y="30" width="180" height="30" as="geometry" />
        </mxCell>
        <mxCell id="V6S02QR5TwxQ0OYpGDw6-55" value="PK" style="shape=partialRectangle;connectable=0;fillColor=none;top=0;left=0;bottom=0;right=0;fontStyle=1;overflow=hidden;whiteSpace=wrap;html=1;" parent="V6S02QR5TwxQ0OYpGDw6-54" vertex="1">
          <mxGeometry width="30" height="30" as="geometry">
            <mxRectangle width="30" height="30" as="alternateBounds" />
          </mxGeometry>
        </mxCell>
        <mxCell id="V6S02QR5TwxQ0OYpGDw6-56" value="master_id" style="shape=partialRectangle;connectable=0;fillColor=none;top=0;left=0;bottom=0;right=0;align=left;spacingLeft=6;fontStyle=5;overflow=hidden;whiteSpace=wrap;html=1;" parent="V6S02QR5TwxQ0OYpGDw6-54" vertex="1">
          <mxGeometry x="30" width="150" height="30" as="geometry">
            <mxRectangle width="150" height="30" as="alternateBounds" />
          </mxGeometry>
        </mxCell>
        <mxCell id="V6S02QR5TwxQ0OYpGDw6-57" value="" style="shape=tableRow;horizontal=0;startSize=0;swimlaneHead=0;swimlaneBody=0;fillColor=none;collapsible=0;dropTarget=0;points=[[0,0.5],[1,0.5]];portConstraint=eastwest;top=0;left=0;right=0;bottom=0;" parent="V6S02QR5TwxQ0OYpGDw6-53" vertex="1">
          <mxGeometry y="60" width="180" height="30" as="geometry" />
        </mxCell>
        <mxCell id="V6S02QR5TwxQ0OYpGDw6-58" value="" style="shape=partialRectangle;connectable=0;fillColor=none;top=0;left=0;bottom=0;right=0;editable=1;overflow=hidden;whiteSpace=wrap;html=1;" parent="V6S02QR5TwxQ0OYpGDw6-57" vertex="1">
          <mxGeometry width="30" height="30" as="geometry">
            <mxRectangle width="30" height="30" as="alternateBounds" />
          </mxGeometry>
        </mxCell>
        <mxCell id="V6S02QR5TwxQ0OYpGDw6-59" value="master_name" style="shape=partialRectangle;connectable=0;fillColor=none;top=0;left=0;bottom=0;right=0;align=left;spacingLeft=6;overflow=hidden;whiteSpace=wrap;html=1;" parent="V6S02QR5TwxQ0OYpGDw6-57" vertex="1">
          <mxGeometry x="30" width="150" height="30" as="geometry">
            <mxRectangle width="150" height="30" as="alternateBounds" />
          </mxGeometry>
        </mxCell>
        <mxCell id="V6S02QR5TwxQ0OYpGDw6-60" value="" style="shape=tableRow;horizontal=0;startSize=0;swimlaneHead=0;swimlaneBody=0;fillColor=none;collapsible=0;dropTarget=0;points=[[0,0.5],[1,0.5]];portConstraint=eastwest;top=0;left=0;right=0;bottom=0;" parent="V6S02QR5TwxQ0OYpGDw6-53" vertex="1">
          <mxGeometry y="90" width="180" height="30" as="geometry" />
        </mxCell>
        <mxCell id="V6S02QR5TwxQ0OYpGDw6-61" value="" style="shape=partialRectangle;connectable=0;fillColor=none;top=0;left=0;bottom=0;right=0;editable=1;overflow=hidden;whiteSpace=wrap;html=1;" parent="V6S02QR5TwxQ0OYpGDw6-60" vertex="1">
          <mxGeometry width="30" height="30" as="geometry">
            <mxRectangle width="30" height="30" as="alternateBounds" />
          </mxGeometry>
        </mxCell>
        <mxCell id="V6S02QR5TwxQ0OYpGDw6-62" value="contact_info" style="shape=partialRectangle;connectable=0;fillColor=none;top=0;left=0;bottom=0;right=0;align=left;spacingLeft=6;overflow=hidden;whiteSpace=wrap;html=1;" parent="V6S02QR5TwxQ0OYpGDw6-60" vertex="1">
          <mxGeometry x="30" width="150" height="30" as="geometry">
            <mxRectangle width="150" height="30" as="alternateBounds" />
          </mxGeometry>
        </mxCell>
        <mxCell id="V6S02QR5TwxQ0OYpGDw6-63" value="" style="shape=tableRow;horizontal=0;startSize=0;swimlaneHead=0;swimlaneBody=0;fillColor=none;collapsible=0;dropTarget=0;points=[[0,0.5],[1,0.5]];portConstraint=eastwest;top=0;left=0;right=0;bottom=0;" parent="V6S02QR5TwxQ0OYpGDw6-53" vertex="1">
          <mxGeometry y="120" width="180" height="30" as="geometry" />
        </mxCell>
        <mxCell id="V6S02QR5TwxQ0OYpGDw6-64" value="" style="shape=partialRectangle;connectable=0;fillColor=none;top=0;left=0;bottom=0;right=0;editable=1;overflow=hidden;whiteSpace=wrap;html=1;" parent="V6S02QR5TwxQ0OYpGDw6-63" vertex="1">
          <mxGeometry width="30" height="30" as="geometry">
            <mxRectangle width="30" height="30" as="alternateBounds" />
          </mxGeometry>
        </mxCell>
        <mxCell id="V6S02QR5TwxQ0OYpGDw6-65" value="work_days" style="shape=partialRectangle;connectable=0;fillColor=none;top=0;left=0;bottom=0;right=0;align=left;spacingLeft=6;overflow=hidden;whiteSpace=wrap;html=1;" parent="V6S02QR5TwxQ0OYpGDw6-63" vertex="1">
          <mxGeometry x="30" width="150" height="30" as="geometry">
            <mxRectangle width="150" height="30" as="alternateBounds" />
          </mxGeometry>
        </mxCell>
        <mxCell id="V6S02QR5TwxQ0OYpGDw6-123" value="" style="shape=tableRow;horizontal=0;startSize=0;swimlaneHead=0;swimlaneBody=0;fillColor=none;collapsible=0;dropTarget=0;points=[[0,0.5],[1,0.5]];portConstraint=eastwest;top=0;left=0;right=0;bottom=0;" parent="V6S02QR5TwxQ0OYpGDw6-53" vertex="1">
          <mxGeometry y="150" width="180" height="30" as="geometry" />
        </mxCell>
        <mxCell id="V6S02QR5TwxQ0OYpGDw6-124" value="" style="shape=partialRectangle;connectable=0;fillColor=none;top=0;left=0;bottom=0;right=0;editable=1;overflow=hidden;" parent="V6S02QR5TwxQ0OYpGDw6-123" vertex="1">
          <mxGeometry width="30" height="30" as="geometry">
            <mxRectangle width="30" height="30" as="alternateBounds" />
          </mxGeometry>
        </mxCell>
        <mxCell id="V6S02QR5TwxQ0OYpGDw6-125" value="work_time" style="shape=partialRectangle;connectable=0;fillColor=none;top=0;left=0;bottom=0;right=0;align=left;spacingLeft=6;overflow=hidden;" parent="V6S02QR5TwxQ0OYpGDw6-123" vertex="1">
          <mxGeometry x="30" width="150" height="30" as="geometry">
            <mxRectangle width="150" height="30" as="alternateBounds" />
          </mxGeometry>
        </mxCell>
        <mxCell id="V6S02QR5TwxQ0OYpGDw6-66" value="reviews" style="shape=table;startSize=30;container=1;collapsible=1;childLayout=tableLayout;fixedRows=1;rowLines=0;fontStyle=1;align=center;resizeLast=1;html=1;" parent="1" vertex="1">
          <mxGeometry x="-488" y="130" width="180" height="210" as="geometry" />
        </mxCell>
        <mxCell id="V6S02QR5TwxQ0OYpGDw6-67" value="" style="shape=tableRow;horizontal=0;startSize=0;swimlaneHead=0;swimlaneBody=0;fillColor=none;collapsible=0;dropTarget=0;points=[[0,0.5],[1,0.5]];portConstraint=eastwest;top=0;left=0;right=0;bottom=1;" parent="V6S02QR5TwxQ0OYpGDw6-66" vertex="1">
          <mxGeometry y="30" width="180" height="30" as="geometry" />
        </mxCell>
        <mxCell id="V6S02QR5TwxQ0OYpGDw6-68" value="PK" style="shape=partialRectangle;connectable=0;fillColor=none;top=0;left=0;bottom=0;right=0;fontStyle=1;overflow=hidden;whiteSpace=wrap;html=1;" parent="V6S02QR5TwxQ0OYpGDw6-67" vertex="1">
          <mxGeometry width="30" height="30" as="geometry">
            <mxRectangle width="30" height="30" as="alternateBounds" />
          </mxGeometry>
        </mxCell>
        <mxCell id="V6S02QR5TwxQ0OYpGDw6-69" value="review_id" style="shape=partialRectangle;connectable=0;fillColor=none;top=0;left=0;bottom=0;right=0;align=left;spacingLeft=6;fontStyle=5;overflow=hidden;whiteSpace=wrap;html=1;" parent="V6S02QR5TwxQ0OYpGDw6-67" vertex="1">
          <mxGeometry x="30" width="150" height="30" as="geometry">
            <mxRectangle width="150" height="30" as="alternateBounds" />
          </mxGeometry>
        </mxCell>
        <mxCell id="V6S02QR5TwxQ0OYpGDw6-70" value="" style="shape=tableRow;horizontal=0;startSize=0;swimlaneHead=0;swimlaneBody=0;fillColor=none;collapsible=0;dropTarget=0;points=[[0,0.5],[1,0.5]];portConstraint=eastwest;top=0;left=0;right=0;bottom=0;" parent="V6S02QR5TwxQ0OYpGDw6-66" vertex="1">
          <mxGeometry y="60" width="180" height="30" as="geometry" />
        </mxCell>
        <mxCell id="V6S02QR5TwxQ0OYpGDw6-71" value="FK" style="shape=partialRectangle;connectable=0;fillColor=none;top=0;left=0;bottom=0;right=0;editable=1;overflow=hidden;whiteSpace=wrap;html=1;" parent="V6S02QR5TwxQ0OYpGDw6-70" vertex="1">
          <mxGeometry width="30" height="30" as="geometry">
            <mxRectangle width="30" height="30" as="alternateBounds" />
          </mxGeometry>
        </mxCell>
        <mxCell id="V6S02QR5TwxQ0OYpGDw6-72" value="master_id" style="shape=partialRectangle;connectable=0;fillColor=none;top=0;left=0;bottom=0;right=0;align=left;spacingLeft=6;overflow=hidden;whiteSpace=wrap;html=1;" parent="V6S02QR5TwxQ0OYpGDw6-70" vertex="1">
          <mxGeometry x="30" width="150" height="30" as="geometry">
            <mxRectangle width="150" height="30" as="alternateBounds" />
          </mxGeometry>
        </mxCell>
        <mxCell id="V6S02QR5TwxQ0OYpGDw6-73" value="" style="shape=tableRow;horizontal=0;startSize=0;swimlaneHead=0;swimlaneBody=0;fillColor=none;collapsible=0;dropTarget=0;points=[[0,0.5],[1,0.5]];portConstraint=eastwest;top=0;left=0;right=0;bottom=0;" parent="V6S02QR5TwxQ0OYpGDw6-66" vertex="1">
          <mxGeometry y="90" width="180" height="30" as="geometry" />
        </mxCell>
        <mxCell id="V6S02QR5TwxQ0OYpGDw6-74" value="" style="shape=partialRectangle;connectable=0;fillColor=none;top=0;left=0;bottom=0;right=0;editable=1;overflow=hidden;whiteSpace=wrap;html=1;" parent="V6S02QR5TwxQ0OYpGDw6-73" vertex="1">
          <mxGeometry width="30" height="30" as="geometry">
            <mxRectangle width="30" height="30" as="alternateBounds" />
          </mxGeometry>
        </mxCell>
        <mxCell id="V6S02QR5TwxQ0OYpGDw6-75" value="client_name" style="shape=partialRectangle;connectable=0;fillColor=none;top=0;left=0;bottom=0;right=0;align=left;spacingLeft=6;overflow=hidden;whiteSpace=wrap;html=1;" parent="V6S02QR5TwxQ0OYpGDw6-73" vertex="1">
          <mxGeometry x="30" width="150" height="30" as="geometry">
            <mxRectangle width="150" height="30" as="alternateBounds" />
          </mxGeometry>
        </mxCell>
        <mxCell id="V6S02QR5TwxQ0OYpGDw6-76" value="" style="shape=tableRow;horizontal=0;startSize=0;swimlaneHead=0;swimlaneBody=0;fillColor=none;collapsible=0;dropTarget=0;points=[[0,0.5],[1,0.5]];portConstraint=eastwest;top=0;left=0;right=0;bottom=0;" parent="V6S02QR5TwxQ0OYpGDw6-66" vertex="1">
          <mxGeometry y="120" width="180" height="30" as="geometry" />
        </mxCell>
        <mxCell id="V6S02QR5TwxQ0OYpGDw6-77" value="" style="shape=partialRectangle;connectable=0;fillColor=none;top=0;left=0;bottom=0;right=0;editable=1;overflow=hidden;whiteSpace=wrap;html=1;" parent="V6S02QR5TwxQ0OYpGDw6-76" vertex="1">
          <mxGeometry width="30" height="30" as="geometry">
            <mxRectangle width="30" height="30" as="alternateBounds" />
          </mxGeometry>
        </mxCell>
        <mxCell id="V6S02QR5TwxQ0OYpGDw6-78" value="review_text" style="shape=partialRectangle;connectable=0;fillColor=none;top=0;left=0;bottom=0;right=0;align=left;spacingLeft=6;overflow=hidden;whiteSpace=wrap;html=1;" parent="V6S02QR5TwxQ0OYpGDw6-76" vertex="1">
          <mxGeometry x="30" width="150" height="30" as="geometry">
            <mxRectangle width="150" height="30" as="alternateBounds" />
          </mxGeometry>
        </mxCell>
        <mxCell id="V6S02QR5TwxQ0OYpGDw6-117" value="" style="shape=tableRow;horizontal=0;startSize=0;swimlaneHead=0;swimlaneBody=0;fillColor=none;collapsible=0;dropTarget=0;points=[[0,0.5],[1,0.5]];portConstraint=eastwest;top=0;left=0;right=0;bottom=0;" parent="V6S02QR5TwxQ0OYpGDw6-66" vertex="1">
          <mxGeometry y="150" width="180" height="30" as="geometry" />
        </mxCell>
        <mxCell id="V6S02QR5TwxQ0OYpGDw6-118" value="" style="shape=partialRectangle;connectable=0;fillColor=none;top=0;left=0;bottom=0;right=0;editable=1;overflow=hidden;" parent="V6S02QR5TwxQ0OYpGDw6-117" vertex="1">
          <mxGeometry width="30" height="30" as="geometry">
            <mxRectangle width="30" height="30" as="alternateBounds" />
          </mxGeometry>
        </mxCell>
        <mxCell id="V6S02QR5TwxQ0OYpGDw6-119" value="review_date" style="shape=partialRectangle;connectable=0;fillColor=none;top=0;left=0;bottom=0;right=0;align=left;spacingLeft=6;overflow=hidden;" parent="V6S02QR5TwxQ0OYpGDw6-117" vertex="1">
          <mxGeometry x="30" width="150" height="30" as="geometry">
            <mxRectangle width="150" height="30" as="alternateBounds" />
          </mxGeometry>
        </mxCell>
        <mxCell id="V6S02QR5TwxQ0OYpGDw6-120" value="" style="shape=tableRow;horizontal=0;startSize=0;swimlaneHead=0;swimlaneBody=0;fillColor=none;collapsible=0;dropTarget=0;points=[[0,0.5],[1,0.5]];portConstraint=eastwest;top=0;left=0;right=0;bottom=0;" parent="V6S02QR5TwxQ0OYpGDw6-66" vertex="1">
          <mxGeometry y="180" width="180" height="30" as="geometry" />
        </mxCell>
        <mxCell id="V6S02QR5TwxQ0OYpGDw6-121" value="" style="shape=partialRectangle;connectable=0;fillColor=none;top=0;left=0;bottom=0;right=0;editable=1;overflow=hidden;" parent="V6S02QR5TwxQ0OYpGDw6-120" vertex="1">
          <mxGeometry width="30" height="30" as="geometry">
            <mxRectangle width="30" height="30" as="alternateBounds" />
          </mxGeometry>
        </mxCell>
        <mxCell id="V6S02QR5TwxQ0OYpGDw6-122" value="rate" style="shape=partialRectangle;connectable=0;fillColor=none;top=0;left=0;bottom=0;right=0;align=left;spacingLeft=6;overflow=hidden;" parent="V6S02QR5TwxQ0OYpGDw6-120" vertex="1">
          <mxGeometry x="30" width="150" height="30" as="geometry">
            <mxRectangle width="150" height="30" as="alternateBounds" />
          </mxGeometry>
        </mxCell>
        <mxCell id="V6S02QR5TwxQ0OYpGDw6-79" value="appointments" style="shape=table;startSize=30;container=1;collapsible=1;childLayout=tableLayout;fixedRows=1;rowLines=0;fontStyle=1;align=center;resizeLast=1;html=1;" parent="1" vertex="1">
          <mxGeometry x="-488" y="415" width="180" height="240" as="geometry" />
        </mxCell>
        <mxCell id="V6S02QR5TwxQ0OYpGDw6-80" value="" style="shape=tableRow;horizontal=0;startSize=0;swimlaneHead=0;swimlaneBody=0;fillColor=none;collapsible=0;dropTarget=0;points=[[0,0.5],[1,0.5]];portConstraint=eastwest;top=0;left=0;right=0;bottom=1;" parent="V6S02QR5TwxQ0OYpGDw6-79" vertex="1">
          <mxGeometry y="30" width="180" height="30" as="geometry" />
        </mxCell>
        <mxCell id="V6S02QR5TwxQ0OYpGDw6-81" value="PK" style="shape=partialRectangle;connectable=0;fillColor=none;top=0;left=0;bottom=0;right=0;fontStyle=1;overflow=hidden;whiteSpace=wrap;html=1;" parent="V6S02QR5TwxQ0OYpGDw6-80" vertex="1">
          <mxGeometry width="30" height="30" as="geometry">
            <mxRectangle width="30" height="30" as="alternateBounds" />
          </mxGeometry>
        </mxCell>
        <mxCell id="V6S02QR5TwxQ0OYpGDw6-82" value="appointment_id" style="shape=partialRectangle;connectable=0;fillColor=none;top=0;left=0;bottom=0;right=0;align=left;spacingLeft=6;fontStyle=5;overflow=hidden;whiteSpace=wrap;html=1;" parent="V6S02QR5TwxQ0OYpGDw6-80" vertex="1">
          <mxGeometry x="30" width="150" height="30" as="geometry">
            <mxRectangle width="150" height="30" as="alternateBounds" />
          </mxGeometry>
        </mxCell>
        <mxCell id="V6S02QR5TwxQ0OYpGDw6-83" value="" style="shape=tableRow;horizontal=0;startSize=0;swimlaneHead=0;swimlaneBody=0;fillColor=none;collapsible=0;dropTarget=0;points=[[0,0.5],[1,0.5]];portConstraint=eastwest;top=0;left=0;right=0;bottom=0;" parent="V6S02QR5TwxQ0OYpGDw6-79" vertex="1">
          <mxGeometry y="60" width="180" height="30" as="geometry" />
        </mxCell>
        <mxCell id="V6S02QR5TwxQ0OYpGDw6-84" value="FK" style="shape=partialRectangle;connectable=0;fillColor=none;top=0;left=0;bottom=0;right=0;editable=1;overflow=hidden;whiteSpace=wrap;html=1;" parent="V6S02QR5TwxQ0OYpGDw6-83" vertex="1">
          <mxGeometry width="30" height="30" as="geometry">
            <mxRectangle width="30" height="30" as="alternateBounds" />
          </mxGeometry>
        </mxCell>
        <mxCell id="V6S02QR5TwxQ0OYpGDw6-85" value="master_id" style="shape=partialRectangle;connectable=0;fillColor=none;top=0;left=0;bottom=0;right=0;align=left;spacingLeft=6;overflow=hidden;whiteSpace=wrap;html=1;" parent="V6S02QR5TwxQ0OYpGDw6-83" vertex="1">
          <mxGeometry x="30" width="150" height="30" as="geometry">
            <mxRectangle width="150" height="30" as="alternateBounds" />
          </mxGeometry>
        </mxCell>
        <mxCell id="V6S02QR5TwxQ0OYpGDw6-86" value="" style="shape=tableRow;horizontal=0;startSize=0;swimlaneHead=0;swimlaneBody=0;fillColor=none;collapsible=0;dropTarget=0;points=[[0,0.5],[1,0.5]];portConstraint=eastwest;top=0;left=0;right=0;bottom=0;" parent="V6S02QR5TwxQ0OYpGDw6-79" vertex="1">
          <mxGeometry y="90" width="180" height="30" as="geometry" />
        </mxCell>
        <mxCell id="V6S02QR5TwxQ0OYpGDw6-87" value="FK" style="shape=partialRectangle;connectable=0;fillColor=none;top=0;left=0;bottom=0;right=0;editable=1;overflow=hidden;whiteSpace=wrap;html=1;" parent="V6S02QR5TwxQ0OYpGDw6-86" vertex="1">
          <mxGeometry width="30" height="30" as="geometry">
            <mxRectangle width="30" height="30" as="alternateBounds" />
          </mxGeometry>
        </mxCell>
        <mxCell id="V6S02QR5TwxQ0OYpGDw6-88" value="service_id" style="shape=partialRectangle;connectable=0;fillColor=none;top=0;left=0;bottom=0;right=0;align=left;spacingLeft=6;overflow=hidden;whiteSpace=wrap;html=1;" parent="V6S02QR5TwxQ0OYpGDw6-86" vertex="1">
          <mxGeometry x="30" width="150" height="30" as="geometry">
            <mxRectangle width="150" height="30" as="alternateBounds" />
          </mxGeometry>
        </mxCell>
        <mxCell id="V6S02QR5TwxQ0OYpGDw6-89" value="" style="shape=tableRow;horizontal=0;startSize=0;swimlaneHead=0;swimlaneBody=0;fillColor=none;collapsible=0;dropTarget=0;points=[[0,0.5],[1,0.5]];portConstraint=eastwest;top=0;left=0;right=0;bottom=0;" parent="V6S02QR5TwxQ0OYpGDw6-79" vertex="1">
          <mxGeometry y="120" width="180" height="30" as="geometry" />
        </mxCell>
        <mxCell id="V6S02QR5TwxQ0OYpGDw6-90" value="FK" style="shape=partialRectangle;connectable=0;fillColor=none;top=0;left=0;bottom=0;right=0;editable=1;overflow=hidden;whiteSpace=wrap;html=1;" parent="V6S02QR5TwxQ0OYpGDw6-89" vertex="1">
          <mxGeometry width="30" height="30" as="geometry">
            <mxRectangle width="30" height="30" as="alternateBounds" />
          </mxGeometry>
        </mxCell>
        <mxCell id="V6S02QR5TwxQ0OYpGDw6-91" value="client_id" style="shape=partialRectangle;connectable=0;fillColor=none;top=0;left=0;bottom=0;right=0;align=left;spacingLeft=6;overflow=hidden;whiteSpace=wrap;html=1;" parent="V6S02QR5TwxQ0OYpGDw6-89" vertex="1">
          <mxGeometry x="30" width="150" height="30" as="geometry">
            <mxRectangle width="150" height="30" as="alternateBounds" />
          </mxGeometry>
        </mxCell>
        <mxCell id="V6S02QR5TwxQ0OYpGDw6-105" value="" style="shape=tableRow;horizontal=0;startSize=0;swimlaneHead=0;swimlaneBody=0;fillColor=none;collapsible=0;dropTarget=0;points=[[0,0.5],[1,0.5]];portConstraint=eastwest;top=0;left=0;right=0;bottom=0;" parent="V6S02QR5TwxQ0OYpGDw6-79" vertex="1">
          <mxGeometry y="150" width="180" height="30" as="geometry" />
        </mxCell>
        <mxCell id="V6S02QR5TwxQ0OYpGDw6-106" value="FK" style="shape=partialRectangle;connectable=0;fillColor=none;top=0;left=0;bottom=0;right=0;editable=1;overflow=hidden;" parent="V6S02QR5TwxQ0OYpGDw6-105" vertex="1">
          <mxGeometry width="30" height="30" as="geometry">
            <mxRectangle width="30" height="30" as="alternateBounds" />
          </mxGeometry>
        </mxCell>
        <mxCell id="V6S02QR5TwxQ0OYpGDw6-107" value="status_id" style="shape=partialRectangle;connectable=0;fillColor=none;top=0;left=0;bottom=0;right=0;align=left;spacingLeft=6;overflow=hidden;" parent="V6S02QR5TwxQ0OYpGDw6-105" vertex="1">
          <mxGeometry x="30" width="150" height="30" as="geometry">
            <mxRectangle width="150" height="30" as="alternateBounds" />
          </mxGeometry>
        </mxCell>
        <mxCell id="V6S02QR5TwxQ0OYpGDw6-111" value="" style="shape=tableRow;horizontal=0;startSize=0;swimlaneHead=0;swimlaneBody=0;fillColor=none;collapsible=0;dropTarget=0;points=[[0,0.5],[1,0.5]];portConstraint=eastwest;top=0;left=0;right=0;bottom=0;" parent="V6S02QR5TwxQ0OYpGDw6-79" vertex="1">
          <mxGeometry y="180" width="180" height="30" as="geometry" />
        </mxCell>
        <mxCell id="V6S02QR5TwxQ0OYpGDw6-112" value="" style="shape=partialRectangle;connectable=0;fillColor=none;top=0;left=0;bottom=0;right=0;editable=1;overflow=hidden;" parent="V6S02QR5TwxQ0OYpGDw6-111" vertex="1">
          <mxGeometry width="30" height="30" as="geometry">
            <mxRectangle width="30" height="30" as="alternateBounds" />
          </mxGeometry>
        </mxCell>
        <mxCell id="V6S02QR5TwxQ0OYpGDw6-113" value="appointment_time" style="shape=partialRectangle;connectable=0;fillColor=none;top=0;left=0;bottom=0;right=0;align=left;spacingLeft=6;overflow=hidden;" parent="V6S02QR5TwxQ0OYpGDw6-111" vertex="1">
          <mxGeometry x="30" width="150" height="30" as="geometry">
            <mxRectangle width="150" height="30" as="alternateBounds" />
          </mxGeometry>
        </mxCell>
        <mxCell id="V6S02QR5TwxQ0OYpGDw6-108" value="" style="shape=tableRow;horizontal=0;startSize=0;swimlaneHead=0;swimlaneBody=0;fillColor=none;collapsible=0;dropTarget=0;points=[[0,0.5],[1,0.5]];portConstraint=eastwest;top=0;left=0;right=0;bottom=0;" parent="V6S02QR5TwxQ0OYpGDw6-79" vertex="1">
          <mxGeometry y="210" width="180" height="30" as="geometry" />
        </mxCell>
        <mxCell id="V6S02QR5TwxQ0OYpGDw6-109" value="" style="shape=partialRectangle;connectable=0;fillColor=none;top=0;left=0;bottom=0;right=0;editable=1;overflow=hidden;" parent="V6S02QR5TwxQ0OYpGDw6-108" vertex="1">
          <mxGeometry width="30" height="30" as="geometry">
            <mxRectangle width="30" height="30" as="alternateBounds" />
          </mxGeometry>
        </mxCell>
        <mxCell id="V6S02QR5TwxQ0OYpGDw6-110" value="appointment_date" style="shape=partialRectangle;connectable=0;fillColor=none;top=0;left=0;bottom=0;right=0;align=left;spacingLeft=6;overflow=hidden;" parent="V6S02QR5TwxQ0OYpGDw6-108" vertex="1">
          <mxGeometry x="30" width="150" height="30" as="geometry">
            <mxRectangle width="150" height="30" as="alternateBounds" />
          </mxGeometry>
        </mxCell>
        <mxCell id="V6S02QR5TwxQ0OYpGDw6-92" value="news" style="shape=table;startSize=30;container=1;collapsible=1;childLayout=tableLayout;fixedRows=1;rowLines=0;fontStyle=1;align=center;resizeLast=1;html=1;" parent="1" vertex="1">
          <mxGeometry x="-758" y="130" width="180" height="150" as="geometry" />
        </mxCell>
        <mxCell id="V6S02QR5TwxQ0OYpGDw6-93" value="" style="shape=tableRow;horizontal=0;startSize=0;swimlaneHead=0;swimlaneBody=0;fillColor=none;collapsible=0;dropTarget=0;points=[[0,0.5],[1,0.5]];portConstraint=eastwest;top=0;left=0;right=0;bottom=1;" parent="V6S02QR5TwxQ0OYpGDw6-92" vertex="1">
          <mxGeometry y="30" width="180" height="30" as="geometry" />
        </mxCell>
        <mxCell id="V6S02QR5TwxQ0OYpGDw6-94" value="PK" style="shape=partialRectangle;connectable=0;fillColor=none;top=0;left=0;bottom=0;right=0;fontStyle=1;overflow=hidden;whiteSpace=wrap;html=1;" parent="V6S02QR5TwxQ0OYpGDw6-93" vertex="1">
          <mxGeometry width="30" height="30" as="geometry">
            <mxRectangle width="30" height="30" as="alternateBounds" />
          </mxGeometry>
        </mxCell>
        <mxCell id="V6S02QR5TwxQ0OYpGDw6-95" value="news_id" style="shape=partialRectangle;connectable=0;fillColor=none;top=0;left=0;bottom=0;right=0;align=left;spacingLeft=6;fontStyle=5;overflow=hidden;whiteSpace=wrap;html=1;" parent="V6S02QR5TwxQ0OYpGDw6-93" vertex="1">
          <mxGeometry x="30" width="150" height="30" as="geometry">
            <mxRectangle width="150" height="30" as="alternateBounds" />
          </mxGeometry>
        </mxCell>
        <mxCell id="V6S02QR5TwxQ0OYpGDw6-96" value="" style="shape=tableRow;horizontal=0;startSize=0;swimlaneHead=0;swimlaneBody=0;fillColor=none;collapsible=0;dropTarget=0;points=[[0,0.5],[1,0.5]];portConstraint=eastwest;top=0;left=0;right=0;bottom=0;" parent="V6S02QR5TwxQ0OYpGDw6-92" vertex="1">
          <mxGeometry y="60" width="180" height="30" as="geometry" />
        </mxCell>
        <mxCell id="V6S02QR5TwxQ0OYpGDw6-97" value="FK" style="shape=partialRectangle;connectable=0;fillColor=none;top=0;left=0;bottom=0;right=0;editable=1;overflow=hidden;whiteSpace=wrap;html=1;" parent="V6S02QR5TwxQ0OYpGDw6-96" vertex="1">
          <mxGeometry width="30" height="30" as="geometry">
            <mxRectangle width="30" height="30" as="alternateBounds" />
          </mxGeometry>
        </mxCell>
        <mxCell id="V6S02QR5TwxQ0OYpGDw6-98" value="news_creater_id" style="shape=partialRectangle;connectable=0;fillColor=none;top=0;left=0;bottom=0;right=0;align=left;spacingLeft=6;overflow=hidden;whiteSpace=wrap;html=1;" parent="V6S02QR5TwxQ0OYpGDw6-96" vertex="1">
          <mxGeometry x="30" width="150" height="30" as="geometry">
            <mxRectangle width="150" height="30" as="alternateBounds" />
          </mxGeometry>
        </mxCell>
        <mxCell id="V6S02QR5TwxQ0OYpGDw6-99" value="" style="shape=tableRow;horizontal=0;startSize=0;swimlaneHead=0;swimlaneBody=0;fillColor=none;collapsible=0;dropTarget=0;points=[[0,0.5],[1,0.5]];portConstraint=eastwest;top=0;left=0;right=0;bottom=0;" parent="V6S02QR5TwxQ0OYpGDw6-92" vertex="1">
          <mxGeometry y="90" width="180" height="30" as="geometry" />
        </mxCell>
        <mxCell id="V6S02QR5TwxQ0OYpGDw6-100" value="" style="shape=partialRectangle;connectable=0;fillColor=none;top=0;left=0;bottom=0;right=0;editable=1;overflow=hidden;whiteSpace=wrap;html=1;" parent="V6S02QR5TwxQ0OYpGDw6-99" vertex="1">
          <mxGeometry width="30" height="30" as="geometry">
            <mxRectangle width="30" height="30" as="alternateBounds" />
          </mxGeometry>
        </mxCell>
        <mxCell id="V6S02QR5TwxQ0OYpGDw6-101" value="news_content" style="shape=partialRectangle;connectable=0;fillColor=none;top=0;left=0;bottom=0;right=0;align=left;spacingLeft=6;overflow=hidden;whiteSpace=wrap;html=1;" parent="V6S02QR5TwxQ0OYpGDw6-99" vertex="1">
          <mxGeometry x="30" width="150" height="30" as="geometry">
            <mxRectangle width="150" height="30" as="alternateBounds" />
          </mxGeometry>
        </mxCell>
        <mxCell id="V6S02QR5TwxQ0OYpGDw6-102" value="" style="shape=tableRow;horizontal=0;startSize=0;swimlaneHead=0;swimlaneBody=0;fillColor=none;collapsible=0;dropTarget=0;points=[[0,0.5],[1,0.5]];portConstraint=eastwest;top=0;left=0;right=0;bottom=0;" parent="V6S02QR5TwxQ0OYpGDw6-92" vertex="1">
          <mxGeometry y="120" width="180" height="30" as="geometry" />
        </mxCell>
        <mxCell id="V6S02QR5TwxQ0OYpGDw6-103" value="" style="shape=partialRectangle;connectable=0;fillColor=none;top=0;left=0;bottom=0;right=0;editable=1;overflow=hidden;whiteSpace=wrap;html=1;" parent="V6S02QR5TwxQ0OYpGDw6-102" vertex="1">
          <mxGeometry width="30" height="30" as="geometry">
            <mxRectangle width="30" height="30" as="alternateBounds" />
          </mxGeometry>
        </mxCell>
        <mxCell id="V6S02QR5TwxQ0OYpGDw6-104" value="news_date" style="shape=partialRectangle;connectable=0;fillColor=none;top=0;left=0;bottom=0;right=0;align=left;spacingLeft=6;overflow=hidden;whiteSpace=wrap;html=1;" parent="V6S02QR5TwxQ0OYpGDw6-102" vertex="1">
          <mxGeometry x="30" width="150" height="30" as="geometry">
            <mxRectangle width="150" height="30" as="alternateBounds" />
          </mxGeometry>
        </mxCell>
        <mxCell id="V6S02QR5TwxQ0OYpGDw6-135" value="" style="edgeStyle=elbowEdgeStyle;fontSize=12;html=1;endArrow=ERmandOne;startArrow=ERmandOne;rounded=0;entryX=0;entryY=0.5;entryDx=0;entryDy=0;exitX=0;exitY=0.5;exitDx=0;exitDy=0;" parent="1" source="V6S02QR5TwxQ0OYpGDw6-2" target="V6S02QR5TwxQ0OYpGDw6-18" edge="1">
          <mxGeometry width="100" height="100" relative="1" as="geometry">
            <mxPoint x="-198" y="380" as="sourcePoint" />
            <mxPoint x="-98" y="280" as="targetPoint" />
            <Array as="points">
              <mxPoint x="-248" y="660" />
            </Array>
          </mxGeometry>
        </mxCell>
        <mxCell id="V6S02QR5TwxQ0OYpGDw6-136" value="" style="edgeStyle=elbowEdgeStyle;fontSize=12;html=1;endArrow=ERmandOne;startArrow=ERmandOne;rounded=0;entryX=0;entryY=0.5;entryDx=0;entryDy=0;exitX=0;exitY=0.5;exitDx=0;exitDy=0;" parent="1" source="V6S02QR5TwxQ0OYpGDw6-105" target="V6S02QR5TwxQ0OYpGDw6-28" edge="1">
          <mxGeometry width="100" height="100" relative="1" as="geometry">
            <mxPoint x="-968" y="585" as="sourcePoint" />
            <mxPoint x="-868" y="485" as="targetPoint" />
            <Array as="points">
              <mxPoint x="-508" y="670" />
            </Array>
          </mxGeometry>
        </mxCell>
        <mxCell id="V6S02QR5TwxQ0OYpGDw6-137" value="" style="edgeStyle=entityRelationEdgeStyle;fontSize=12;html=1;endArrow=ERmandOne;startArrow=ERmandOne;rounded=0;entryX=0;entryY=0.5;entryDx=0;entryDy=0;exitX=1;exitY=0.5;exitDx=0;exitDy=0;" parent="1" source="V6S02QR5TwxQ0OYpGDw6-41" target="V6S02QR5TwxQ0OYpGDw6-89" edge="1">
          <mxGeometry width="100" height="100" relative="1" as="geometry">
            <mxPoint x="-928" y="600" as="sourcePoint" />
            <mxPoint x="-828" y="500" as="targetPoint" />
          </mxGeometry>
        </mxCell>
        <mxCell id="V6S02QR5TwxQ0OYpGDw6-138" value="" style="edgeStyle=entityRelationEdgeStyle;fontSize=12;html=1;endArrow=ERmandOne;startArrow=ERmandOne;rounded=0;entryX=0;entryY=0.5;entryDx=0;entryDy=0;exitX=1;exitY=0.5;exitDx=0;exitDy=0;" parent="1" source="V6S02QR5TwxQ0OYpGDw6-54" target="V6S02QR5TwxQ0OYpGDw6-70" edge="1">
          <mxGeometry width="100" height="100" relative="1" as="geometry">
            <mxPoint x="-618" y="360" as="sourcePoint" />
            <mxPoint x="-518" y="260" as="targetPoint" />
          </mxGeometry>
        </mxCell>
        <mxCell id="V6S02QR5TwxQ0OYpGDw6-139" value="" style="edgeStyle=entityRelationEdgeStyle;fontSize=12;html=1;endArrow=ERmandOne;startArrow=ERmandOne;rounded=0;entryX=1;entryY=0.5;entryDx=0;entryDy=0;exitX=0;exitY=0.5;exitDx=0;exitDy=0;" parent="1" source="V6S02QR5TwxQ0OYpGDw6-83" target="V6S02QR5TwxQ0OYpGDw6-54" edge="1">
          <mxGeometry width="100" height="100" relative="1" as="geometry">
            <mxPoint x="-928" y="585" as="sourcePoint" />
            <mxPoint x="-828" y="485" as="targetPoint" />
          </mxGeometry>
        </mxCell>
        <mxCell id="V6S02QR5TwxQ0OYpGDw6-141" value="" style="edgeStyle=elbowEdgeStyle;fontSize=12;html=1;endArrow=ERmandOne;startArrow=ERmandOne;rounded=0;entryX=0;entryY=0.5;entryDx=0;entryDy=0;exitX=0;exitY=0.5;exitDx=0;exitDy=0;" parent="1" source="V6S02QR5TwxQ0OYpGDw6-54" target="V6S02QR5TwxQ0OYpGDw6-96" edge="1">
          <mxGeometry width="100" height="100" relative="1" as="geometry">
            <mxPoint x="-938" y="400" as="sourcePoint" />
            <mxPoint x="-838" y="300" as="targetPoint" />
            <Array as="points">
              <mxPoint x="-798" y="300" />
            </Array>
          </mxGeometry>
        </mxCell>
        <mxCell id="V6S02QR5TwxQ0OYpGDw6-142" value="" style="edgeStyle=entityRelationEdgeStyle;fontSize=12;html=1;endArrow=ERmandOne;startArrow=ERmandOne;rounded=0;entryX=0;entryY=0.5;entryDx=0;entryDy=0;exitX=1;exitY=0.5;exitDx=0;exitDy=0;" parent="1" source="V6S02QR5TwxQ0OYpGDw6-86" target="V6S02QR5TwxQ0OYpGDw6-15" edge="1">
          <mxGeometry width="100" height="100" relative="1" as="geometry">
            <mxPoint x="-188" y="390" as="sourcePoint" />
            <mxPoint x="-88" y="290" as="targetPoint" />
          </mxGeometry>
        </mxCell>
      </root>
    </mxGraphModel>
  </diagram>
  <diagram id="DxF4BQk3ZR_zhw3Oyt_3" name="Модульная диаграмма">
    <mxGraphModel dx="1122" dy="828" grid="1" gridSize="10" guides="1" tooltips="1" connect="1" arrows="1" fold="1" page="1" pageScale="1" pageWidth="827" pageHeight="1169" math="0" shadow="0">
      <root>
        <mxCell id="0" />
        <mxCell id="1" parent="0" />
        <mxCell id="QEh7QAdm0UCW52NopoUp-10" style="edgeStyle=orthogonalEdgeStyle;rounded=0;orthogonalLoop=1;jettySize=auto;html=1;exitX=0.5;exitY=1;exitDx=0;exitDy=0;entryX=0.5;entryY=0;entryDx=0;entryDy=0;" edge="1" parent="1" source="QEh7QAdm0UCW52NopoUp-1" target="QEh7QAdm0UCW52NopoUp-2">
          <mxGeometry relative="1" as="geometry" />
        </mxCell>
        <mxCell id="QEh7QAdm0UCW52NopoUp-1" value="Модуль главная" style="rounded=1;whiteSpace=wrap;html=1;" vertex="1" parent="1">
          <mxGeometry x="290" y="30" width="120" height="60" as="geometry" />
        </mxCell>
        <mxCell id="QEh7QAdm0UCW52NopoUp-11" style="edgeStyle=orthogonalEdgeStyle;rounded=0;orthogonalLoop=1;jettySize=auto;html=1;exitX=0.5;exitY=1;exitDx=0;exitDy=0;entryX=0.5;entryY=0;entryDx=0;entryDy=0;" edge="1" parent="1" source="QEh7QAdm0UCW52NopoUp-2" target="QEh7QAdm0UCW52NopoUp-9">
          <mxGeometry relative="1" as="geometry" />
        </mxCell>
        <mxCell id="QEh7QAdm0UCW52NopoUp-12" style="edgeStyle=orthogonalEdgeStyle;rounded=0;orthogonalLoop=1;jettySize=auto;html=1;exitX=0.5;exitY=1;exitDx=0;exitDy=0;entryX=0.5;entryY=0;entryDx=0;entryDy=0;" edge="1" parent="1" source="QEh7QAdm0UCW52NopoUp-2" target="QEh7QAdm0UCW52NopoUp-3">
          <mxGeometry relative="1" as="geometry" />
        </mxCell>
        <mxCell id="QEh7QAdm0UCW52NopoUp-13" style="edgeStyle=orthogonalEdgeStyle;rounded=0;orthogonalLoop=1;jettySize=auto;html=1;exitX=0.5;exitY=1;exitDx=0;exitDy=0;entryX=0.5;entryY=0;entryDx=0;entryDy=0;" edge="1" parent="1" source="QEh7QAdm0UCW52NopoUp-2" target="QEh7QAdm0UCW52NopoUp-5">
          <mxGeometry relative="1" as="geometry">
            <Array as="points">
              <mxPoint x="350" y="320" />
              <mxPoint x="500" y="320" />
            </Array>
          </mxGeometry>
        </mxCell>
        <mxCell id="QEh7QAdm0UCW52NopoUp-15" style="edgeStyle=orthogonalEdgeStyle;rounded=0;orthogonalLoop=1;jettySize=auto;html=1;exitX=0.5;exitY=1;exitDx=0;exitDy=0;entryX=0.5;entryY=0;entryDx=0;entryDy=0;" edge="1" parent="1" source="QEh7QAdm0UCW52NopoUp-2" target="QEh7QAdm0UCW52NopoUp-7">
          <mxGeometry relative="1" as="geometry">
            <Array as="points">
              <mxPoint x="350" y="320" />
              <mxPoint x="650" y="320" />
            </Array>
          </mxGeometry>
        </mxCell>
        <mxCell id="QEh7QAdm0UCW52NopoUp-16" style="edgeStyle=orthogonalEdgeStyle;rounded=0;orthogonalLoop=1;jettySize=auto;html=1;exitX=0.5;exitY=1;exitDx=0;exitDy=0;entryX=0.5;entryY=0;entryDx=0;entryDy=0;" edge="1" parent="1" source="QEh7QAdm0UCW52NopoUp-2" target="QEh7QAdm0UCW52NopoUp-8">
          <mxGeometry relative="1" as="geometry">
            <Array as="points">
              <mxPoint x="350" y="320" />
              <mxPoint x="800" y="320" />
            </Array>
          </mxGeometry>
        </mxCell>
        <mxCell id="QEh7QAdm0UCW52NopoUp-17" style="edgeStyle=orthogonalEdgeStyle;rounded=0;orthogonalLoop=1;jettySize=auto;html=1;exitX=0.5;exitY=1;exitDx=0;exitDy=0;entryX=0.5;entryY=0;entryDx=0;entryDy=0;" edge="1" parent="1" source="QEh7QAdm0UCW52NopoUp-2" target="QEh7QAdm0UCW52NopoUp-4">
          <mxGeometry relative="1" as="geometry">
            <Array as="points">
              <mxPoint x="350" y="320" />
              <mxPoint x="200" y="320" />
            </Array>
          </mxGeometry>
        </mxCell>
        <mxCell id="QEh7QAdm0UCW52NopoUp-18" style="edgeStyle=orthogonalEdgeStyle;rounded=0;orthogonalLoop=1;jettySize=auto;html=1;exitX=0.5;exitY=1;exitDx=0;exitDy=0;entryX=0.5;entryY=0;entryDx=0;entryDy=0;" edge="1" parent="1" source="QEh7QAdm0UCW52NopoUp-2" target="QEh7QAdm0UCW52NopoUp-6">
          <mxGeometry relative="1" as="geometry">
            <Array as="points">
              <mxPoint x="350" y="320" />
              <mxPoint x="60" y="320" />
            </Array>
          </mxGeometry>
        </mxCell>
        <mxCell id="QEh7QAdm0UCW52NopoUp-2" value="Модуль аутентификация" style="rounded=1;whiteSpace=wrap;html=1;" vertex="1" parent="1">
          <mxGeometry x="290" y="130" width="120" height="60" as="geometry" />
        </mxCell>
        <mxCell id="QEh7QAdm0UCW52NopoUp-33" style="edgeStyle=orthogonalEdgeStyle;rounded=0;orthogonalLoop=1;jettySize=auto;html=1;exitX=0.5;exitY=1;exitDx=0;exitDy=0;" edge="1" parent="1" source="QEh7QAdm0UCW52NopoUp-3">
          <mxGeometry relative="1" as="geometry">
            <mxPoint x="350" y="540" as="targetPoint" />
          </mxGeometry>
        </mxCell>
        <mxCell id="QEh7QAdm0UCW52NopoUp-3" value="Модуль личный кабинет" style="rounded=1;whiteSpace=wrap;html=1;" vertex="1" parent="1">
          <mxGeometry x="290" y="340" width="120" height="60" as="geometry" />
        </mxCell>
        <mxCell id="QEh7QAdm0UCW52NopoUp-20" style="edgeStyle=orthogonalEdgeStyle;rounded=0;orthogonalLoop=1;jettySize=auto;html=1;exitX=0.5;exitY=1;exitDx=0;exitDy=0;entryX=0.5;entryY=0;entryDx=0;entryDy=0;" edge="1" parent="1" source="QEh7QAdm0UCW52NopoUp-4" target="QEh7QAdm0UCW52NopoUp-19">
          <mxGeometry relative="1" as="geometry" />
        </mxCell>
        <mxCell id="QEh7QAdm0UCW52NopoUp-4" value="Модуль записи на прием(бронирования)" style="rounded=1;whiteSpace=wrap;html=1;" vertex="1" parent="1">
          <mxGeometry x="140" y="340" width="120" height="60" as="geometry" />
        </mxCell>
        <mxCell id="QEh7QAdm0UCW52NopoUp-25" style="edgeStyle=orthogonalEdgeStyle;rounded=0;orthogonalLoop=1;jettySize=auto;html=1;exitX=0.5;exitY=1;exitDx=0;exitDy=0;entryX=0.5;entryY=0;entryDx=0;entryDy=0;" edge="1" parent="1" source="QEh7QAdm0UCW52NopoUp-5" target="QEh7QAdm0UCW52NopoUp-24">
          <mxGeometry relative="1" as="geometry" />
        </mxCell>
        <mxCell id="QEh7QAdm0UCW52NopoUp-5" value="Модуль отзывов" style="rounded=1;whiteSpace=wrap;html=1;" vertex="1" parent="1">
          <mxGeometry x="440" y="340" width="120" height="60" as="geometry" />
        </mxCell>
        <mxCell id="QEh7QAdm0UCW52NopoUp-22" style="edgeStyle=orthogonalEdgeStyle;rounded=0;orthogonalLoop=1;jettySize=auto;html=1;exitX=0.5;exitY=1;exitDx=0;exitDy=0;entryX=0.5;entryY=0;entryDx=0;entryDy=0;" edge="1" parent="1" source="QEh7QAdm0UCW52NopoUp-6" target="QEh7QAdm0UCW52NopoUp-21">
          <mxGeometry relative="1" as="geometry" />
        </mxCell>
        <mxCell id="QEh7QAdm0UCW52NopoUp-6" value="Модуль услуги" style="rounded=1;whiteSpace=wrap;html=1;" vertex="1" parent="1">
          <mxGeometry y="340" width="120" height="60" as="geometry" />
        </mxCell>
        <mxCell id="QEh7QAdm0UCW52NopoUp-26" style="edgeStyle=orthogonalEdgeStyle;rounded=0;orthogonalLoop=1;jettySize=auto;html=1;exitX=0.5;exitY=1;exitDx=0;exitDy=0;entryX=0.5;entryY=0;entryDx=0;entryDy=0;" edge="1" parent="1" source="QEh7QAdm0UCW52NopoUp-7" target="QEh7QAdm0UCW52NopoUp-23">
          <mxGeometry relative="1" as="geometry" />
        </mxCell>
        <mxCell id="QEh7QAdm0UCW52NopoUp-7" value="Модуль новости" style="rounded=1;whiteSpace=wrap;html=1;" vertex="1" parent="1">
          <mxGeometry x="590" y="340" width="120" height="60" as="geometry" />
        </mxCell>
        <mxCell id="QEh7QAdm0UCW52NopoUp-32" style="edgeStyle=orthogonalEdgeStyle;rounded=0;orthogonalLoop=1;jettySize=auto;html=1;exitX=0.5;exitY=1;exitDx=0;exitDy=0;entryX=0.5;entryY=0;entryDx=0;entryDy=0;" edge="1" parent="1" source="QEh7QAdm0UCW52NopoUp-8" target="QEh7QAdm0UCW52NopoUp-27">
          <mxGeometry relative="1" as="geometry">
            <Array as="points">
              <mxPoint x="800" y="520" />
              <mxPoint x="350" y="520" />
            </Array>
          </mxGeometry>
        </mxCell>
        <mxCell id="QEh7QAdm0UCW52NopoUp-8" value="Модуль планирования рабочего времени" style="rounded=1;whiteSpace=wrap;html=1;" vertex="1" parent="1">
          <mxGeometry x="740" y="340" width="120" height="60" as="geometry" />
        </mxCell>
        <mxCell id="QEh7QAdm0UCW52NopoUp-14" style="edgeStyle=orthogonalEdgeStyle;rounded=0;orthogonalLoop=1;jettySize=auto;html=1;exitX=0.5;exitY=1;exitDx=0;exitDy=0;entryX=0.5;entryY=0;entryDx=0;entryDy=0;" edge="1" parent="1" source="QEh7QAdm0UCW52NopoUp-9" target="QEh7QAdm0UCW52NopoUp-3">
          <mxGeometry relative="1" as="geometry">
            <Array as="points">
              <mxPoint x="220" y="320" />
              <mxPoint x="350" y="320" />
            </Array>
          </mxGeometry>
        </mxCell>
        <mxCell id="QEh7QAdm0UCW52NopoUp-9" value="Моудль регистрации" style="rounded=1;whiteSpace=wrap;html=1;" vertex="1" parent="1">
          <mxGeometry x="160" y="230" width="120" height="60" as="geometry" />
        </mxCell>
        <mxCell id="QEh7QAdm0UCW52NopoUp-29" style="edgeStyle=orthogonalEdgeStyle;rounded=0;orthogonalLoop=1;jettySize=auto;html=1;exitX=0.5;exitY=1;exitDx=0;exitDy=0;entryX=0.5;entryY=0;entryDx=0;entryDy=0;" edge="1" parent="1" source="QEh7QAdm0UCW52NopoUp-19" target="QEh7QAdm0UCW52NopoUp-27">
          <mxGeometry relative="1" as="geometry">
            <Array as="points">
              <mxPoint x="200" y="520" />
              <mxPoint x="350" y="520" />
            </Array>
          </mxGeometry>
        </mxCell>
        <mxCell id="QEh7QAdm0UCW52NopoUp-19" value="Модуль подверждения, удаления и редатирования записйе" style="rounded=1;whiteSpace=wrap;html=1;" vertex="1" parent="1">
          <mxGeometry x="140" y="430" width="120" height="60" as="geometry" />
        </mxCell>
        <mxCell id="QEh7QAdm0UCW52NopoUp-28" style="edgeStyle=orthogonalEdgeStyle;rounded=0;orthogonalLoop=1;jettySize=auto;html=1;exitX=0.5;exitY=1;exitDx=0;exitDy=0;entryX=0.5;entryY=0;entryDx=0;entryDy=0;" edge="1" parent="1" source="QEh7QAdm0UCW52NopoUp-21" target="QEh7QAdm0UCW52NopoUp-27">
          <mxGeometry relative="1" as="geometry">
            <Array as="points">
              <mxPoint x="60" y="520" />
              <mxPoint x="350" y="520" />
            </Array>
          </mxGeometry>
        </mxCell>
        <mxCell id="QEh7QAdm0UCW52NopoUp-21" value="Модуль добавления, удаления и редатирования услуг" style="rounded=1;whiteSpace=wrap;html=1;" vertex="1" parent="1">
          <mxGeometry y="430" width="120" height="60" as="geometry" />
        </mxCell>
        <mxCell id="QEh7QAdm0UCW52NopoUp-31" style="edgeStyle=orthogonalEdgeStyle;rounded=0;orthogonalLoop=1;jettySize=auto;html=1;exitX=0.5;exitY=1;exitDx=0;exitDy=0;" edge="1" parent="1" source="QEh7QAdm0UCW52NopoUp-23">
          <mxGeometry relative="1" as="geometry">
            <mxPoint x="350" y="540" as="targetPoint" />
            <Array as="points">
              <mxPoint x="650" y="520" />
              <mxPoint x="351" y="520" />
            </Array>
          </mxGeometry>
        </mxCell>
        <mxCell id="QEh7QAdm0UCW52NopoUp-23" value="Модуль добавления, удаления и редатирования новостей" style="rounded=1;whiteSpace=wrap;html=1;" vertex="1" parent="1">
          <mxGeometry x="590" y="430" width="120" height="60" as="geometry" />
        </mxCell>
        <mxCell id="QEh7QAdm0UCW52NopoUp-30" style="edgeStyle=orthogonalEdgeStyle;rounded=0;orthogonalLoop=1;jettySize=auto;html=1;exitX=0.5;exitY=1;exitDx=0;exitDy=0;entryX=0.5;entryY=0;entryDx=0;entryDy=0;" edge="1" parent="1" source="QEh7QAdm0UCW52NopoUp-24" target="QEh7QAdm0UCW52NopoUp-27">
          <mxGeometry relative="1" as="geometry">
            <Array as="points">
              <mxPoint x="500" y="520" />
              <mxPoint x="350" y="520" />
            </Array>
          </mxGeometry>
        </mxCell>
        <mxCell id="QEh7QAdm0UCW52NopoUp-24" value="Модуль удаления отзывов" style="rounded=1;whiteSpace=wrap;html=1;" vertex="1" parent="1">
          <mxGeometry x="440" y="430" width="120" height="60" as="geometry" />
        </mxCell>
        <mxCell id="QEh7QAdm0UCW52NopoUp-27" value="БД" style="rounded=1;whiteSpace=wrap;html=1;" vertex="1" parent="1">
          <mxGeometry x="290" y="540" width="120" height="60" as="geometry" />
        </mxCell>
      </root>
    </mxGraphModel>
  </diagram>
  <diagram id="qUImdxYURXIQwzQ8vFRS" name="Стркутурная схема">
    <mxGraphModel dx="1908" dy="1408" grid="1" gridSize="10" guides="1" tooltips="1" connect="1" arrows="1" fold="1" page="1" pageScale="1" pageWidth="827" pageHeight="1169" math="0" shadow="0">
      <root>
        <mxCell id="0" />
        <mxCell id="1" parent="0" />
        <mxCell id="5P2e2N6zzCowRKepvoV_-18" style="edgeStyle=orthogonalEdgeStyle;rounded=0;orthogonalLoop=1;jettySize=auto;html=1;exitX=0.5;exitY=1;exitDx=0;exitDy=0;entryX=0.5;entryY=0;entryDx=0;entryDy=0;" edge="1" parent="1" source="ONhxCuwvoK2ivPgrUghP-1" target="GDIBAJSohpUm3TFu--q8-1">
          <mxGeometry relative="1" as="geometry" />
        </mxCell>
        <mxCell id="5P2e2N6zzCowRKepvoV_-19" style="edgeStyle=orthogonalEdgeStyle;rounded=0;orthogonalLoop=1;jettySize=auto;html=1;exitX=0.5;exitY=1;exitDx=0;exitDy=0;entryX=0.5;entryY=0;entryDx=0;entryDy=0;" edge="1" parent="1" source="ONhxCuwvoK2ivPgrUghP-1" target="QqMulurOwwWM-U0ntgR_-1">
          <mxGeometry relative="1" as="geometry" />
        </mxCell>
        <mxCell id="5P2e2N6zzCowRKepvoV_-20" style="edgeStyle=orthogonalEdgeStyle;rounded=0;orthogonalLoop=1;jettySize=auto;html=1;exitX=0.5;exitY=1;exitDx=0;exitDy=0;entryX=0.5;entryY=0;entryDx=0;entryDy=0;" edge="1" parent="1" source="ONhxCuwvoK2ivPgrUghP-1" target="QqMulurOwwWM-U0ntgR_-12">
          <mxGeometry relative="1" as="geometry" />
        </mxCell>
        <mxCell id="5P2e2N6zzCowRKepvoV_-21" style="edgeStyle=orthogonalEdgeStyle;rounded=0;orthogonalLoop=1;jettySize=auto;html=1;exitX=0.5;exitY=1;exitDx=0;exitDy=0;entryX=0.5;entryY=0;entryDx=0;entryDy=0;" edge="1" parent="1" source="ONhxCuwvoK2ivPgrUghP-1" target="QqMulurOwwWM-U0ntgR_-27">
          <mxGeometry relative="1" as="geometry" />
        </mxCell>
        <mxCell id="5P2e2N6zzCowRKepvoV_-22" style="edgeStyle=orthogonalEdgeStyle;rounded=0;orthogonalLoop=1;jettySize=auto;html=1;exitX=0.5;exitY=1;exitDx=0;exitDy=0;entryX=0.5;entryY=0;entryDx=0;entryDy=0;" edge="1" parent="1" source="ONhxCuwvoK2ivPgrUghP-1" target="sJPmTYBkVExX-pVa-28G-7">
          <mxGeometry relative="1" as="geometry" />
        </mxCell>
        <mxCell id="5P2e2N6zzCowRKepvoV_-23" style="edgeStyle=orthogonalEdgeStyle;rounded=0;orthogonalLoop=1;jettySize=auto;html=1;exitX=0.5;exitY=1;exitDx=0;exitDy=0;entryX=0.5;entryY=0;entryDx=0;entryDy=0;" edge="1" parent="1" source="ONhxCuwvoK2ivPgrUghP-1" target="eUGmkUE09nqFIzQmqo73-5">
          <mxGeometry relative="1" as="geometry" />
        </mxCell>
        <mxCell id="5P2e2N6zzCowRKepvoV_-24" style="edgeStyle=orthogonalEdgeStyle;rounded=0;orthogonalLoop=1;jettySize=auto;html=1;exitX=0.5;exitY=1;exitDx=0;exitDy=0;entryX=0.5;entryY=0;entryDx=0;entryDy=0;" edge="1" parent="1" source="ONhxCuwvoK2ivPgrUghP-1" target="5P2e2N6zzCowRKepvoV_-5">
          <mxGeometry relative="1" as="geometry" />
        </mxCell>
        <mxCell id="5P2e2N6zzCowRKepvoV_-25" style="edgeStyle=orthogonalEdgeStyle;rounded=0;orthogonalLoop=1;jettySize=auto;html=1;exitX=0.5;exitY=1;exitDx=0;exitDy=0;entryX=0.5;entryY=0;entryDx=0;entryDy=0;" edge="1" parent="1" source="ONhxCuwvoK2ivPgrUghP-1" target="5P2e2N6zzCowRKepvoV_-14">
          <mxGeometry relative="1" as="geometry" />
        </mxCell>
        <mxCell id="ONhxCuwvoK2ivPgrUghP-1" value="Название твоего проект&amp;nbsp;" style="rounded=1;whiteSpace=wrap;html=1;" vertex="1" parent="1">
          <mxGeometry x="680" y="70" width="120" height="60" as="geometry" />
        </mxCell>
        <mxCell id="GDIBAJSohpUm3TFu--q8-1" value="Подсистема главная страница" style="rounded=1;whiteSpace=wrap;html=1;" vertex="1" parent="1">
          <mxGeometry x="90" y="170" width="120" height="60" as="geometry" />
        </mxCell>
        <mxCell id="QqMulurOwwWM-U0ntgR_-3" style="edgeStyle=orthogonalEdgeStyle;rounded=0;orthogonalLoop=1;jettySize=auto;html=1;exitX=0.25;exitY=1;exitDx=0;exitDy=0;entryX=0;entryY=0.5;entryDx=0;entryDy=0;" edge="1" parent="1" source="QqMulurOwwWM-U0ntgR_-1" target="QqMulurOwwWM-U0ntgR_-2">
          <mxGeometry relative="1" as="geometry" />
        </mxCell>
        <mxCell id="QqMulurOwwWM-U0ntgR_-6" style="edgeStyle=orthogonalEdgeStyle;rounded=0;orthogonalLoop=1;jettySize=auto;html=1;exitX=0.25;exitY=1;exitDx=0;exitDy=0;entryX=0;entryY=0.5;entryDx=0;entryDy=0;" edge="1" parent="1" source="QqMulurOwwWM-U0ntgR_-1" target="QqMulurOwwWM-U0ntgR_-4">
          <mxGeometry relative="1" as="geometry" />
        </mxCell>
        <mxCell id="QqMulurOwwWM-U0ntgR_-7" style="edgeStyle=orthogonalEdgeStyle;rounded=0;orthogonalLoop=1;jettySize=auto;html=1;exitX=0.25;exitY=1;exitDx=0;exitDy=0;entryX=0;entryY=0.5;entryDx=0;entryDy=0;" edge="1" parent="1" source="QqMulurOwwWM-U0ntgR_-1" target="QqMulurOwwWM-U0ntgR_-5">
          <mxGeometry relative="1" as="geometry" />
        </mxCell>
        <mxCell id="QqMulurOwwWM-U0ntgR_-1" value="Подсистема авторизации" style="rounded=1;whiteSpace=wrap;html=1;" vertex="1" parent="1">
          <mxGeometry x="250" y="170" width="120" height="60" as="geometry" />
        </mxCell>
        <mxCell id="QqMulurOwwWM-U0ntgR_-2" value="Вводи телефона или почты и пароля" style="rounded=1;whiteSpace=wrap;html=1;" vertex="1" parent="1">
          <mxGeometry x="300" y="250" width="120" height="60" as="geometry" />
        </mxCell>
        <mxCell id="QqMulurOwwWM-U0ntgR_-4" value="Войти" style="rounded=1;whiteSpace=wrap;html=1;" vertex="1" parent="1">
          <mxGeometry x="300" y="320" width="120" height="60" as="geometry" />
        </mxCell>
        <mxCell id="QqMulurOwwWM-U0ntgR_-5" value="Зарегистрироваться" style="rounded=1;whiteSpace=wrap;html=1;" vertex="1" parent="1">
          <mxGeometry x="300" y="390" width="120" height="60" as="geometry" />
        </mxCell>
        <mxCell id="QqMulurOwwWM-U0ntgR_-9" style="edgeStyle=orthogonalEdgeStyle;rounded=0;orthogonalLoop=1;jettySize=auto;html=1;exitX=0.25;exitY=1;exitDx=0;exitDy=0;entryX=0;entryY=0.5;entryDx=0;entryDy=0;" edge="1" parent="1" source="QqMulurOwwWM-U0ntgR_-12" target="QqMulurOwwWM-U0ntgR_-13">
          <mxGeometry relative="1" as="geometry" />
        </mxCell>
        <mxCell id="QqMulurOwwWM-U0ntgR_-10" style="edgeStyle=orthogonalEdgeStyle;rounded=0;orthogonalLoop=1;jettySize=auto;html=1;exitX=0.25;exitY=1;exitDx=0;exitDy=0;entryX=0;entryY=0.5;entryDx=0;entryDy=0;" edge="1" parent="1" source="QqMulurOwwWM-U0ntgR_-12" target="QqMulurOwwWM-U0ntgR_-14">
          <mxGeometry relative="1" as="geometry" />
        </mxCell>
        <mxCell id="QqMulurOwwWM-U0ntgR_-11" style="edgeStyle=orthogonalEdgeStyle;rounded=0;orthogonalLoop=1;jettySize=auto;html=1;exitX=0.25;exitY=1;exitDx=0;exitDy=0;entryX=0;entryY=0.5;entryDx=0;entryDy=0;" edge="1" parent="1" source="QqMulurOwwWM-U0ntgR_-12" target="QqMulurOwwWM-U0ntgR_-15">
          <mxGeometry relative="1" as="geometry" />
        </mxCell>
        <mxCell id="QqMulurOwwWM-U0ntgR_-12" value="Подсистема авторизации" style="rounded=1;whiteSpace=wrap;html=1;" vertex="1" parent="1">
          <mxGeometry x="420" y="170" width="120" height="60" as="geometry" />
        </mxCell>
        <mxCell id="QqMulurOwwWM-U0ntgR_-13" value="Вводи ФИО, телефона, почты, пароля" style="rounded=1;whiteSpace=wrap;html=1;" vertex="1" parent="1">
          <mxGeometry x="470" y="250" width="120" height="60" as="geometry" />
        </mxCell>
        <mxCell id="QqMulurOwwWM-U0ntgR_-14" value="Зарегистрироваться" style="rounded=1;whiteSpace=wrap;html=1;" vertex="1" parent="1">
          <mxGeometry x="470" y="320" width="120" height="60" as="geometry" />
        </mxCell>
        <mxCell id="QqMulurOwwWM-U0ntgR_-15" value="Войти" style="rounded=1;whiteSpace=wrap;html=1;" vertex="1" parent="1">
          <mxGeometry x="470" y="390" width="120" height="60" as="geometry" />
        </mxCell>
        <mxCell id="QqMulurOwwWM-U0ntgR_-24" style="edgeStyle=orthogonalEdgeStyle;rounded=0;orthogonalLoop=1;jettySize=auto;html=1;exitX=0.25;exitY=1;exitDx=0;exitDy=0;entryX=0;entryY=0.5;entryDx=0;entryDy=0;" edge="1" parent="1" source="QqMulurOwwWM-U0ntgR_-27" target="QqMulurOwwWM-U0ntgR_-28">
          <mxGeometry relative="1" as="geometry" />
        </mxCell>
        <mxCell id="QqMulurOwwWM-U0ntgR_-25" style="edgeStyle=orthogonalEdgeStyle;rounded=0;orthogonalLoop=1;jettySize=auto;html=1;exitX=0.25;exitY=1;exitDx=0;exitDy=0;entryX=0;entryY=0.5;entryDx=0;entryDy=0;" edge="1" parent="1" source="QqMulurOwwWM-U0ntgR_-27" target="QqMulurOwwWM-U0ntgR_-29">
          <mxGeometry relative="1" as="geometry" />
        </mxCell>
        <mxCell id="QqMulurOwwWM-U0ntgR_-26" style="edgeStyle=orthogonalEdgeStyle;rounded=0;orthogonalLoop=1;jettySize=auto;html=1;exitX=0.25;exitY=1;exitDx=0;exitDy=0;entryX=0;entryY=0.5;entryDx=0;entryDy=0;" edge="1" parent="1" source="QqMulurOwwWM-U0ntgR_-27" target="QqMulurOwwWM-U0ntgR_-30">
          <mxGeometry relative="1" as="geometry" />
        </mxCell>
        <mxCell id="sJPmTYBkVExX-pVa-28G-2" style="edgeStyle=orthogonalEdgeStyle;rounded=0;orthogonalLoop=1;jettySize=auto;html=1;exitX=0.25;exitY=1;exitDx=0;exitDy=0;entryX=0;entryY=0.5;entryDx=0;entryDy=0;" edge="1" parent="1" source="QqMulurOwwWM-U0ntgR_-27" target="sJPmTYBkVExX-pVa-28G-1">
          <mxGeometry relative="1" as="geometry" />
        </mxCell>
        <mxCell id="QqMulurOwwWM-U0ntgR_-27" value="Подсистема создания услуг" style="rounded=1;whiteSpace=wrap;html=1;" vertex="1" parent="1">
          <mxGeometry x="590" y="170" width="120" height="60" as="geometry" />
        </mxCell>
        <mxCell id="QqMulurOwwWM-U0ntgR_-28" value="&amp;nbsp;Ввод группы услуг, название, описание и цена" style="rounded=1;whiteSpace=wrap;html=1;" vertex="1" parent="1">
          <mxGeometry x="640" y="250" width="120" height="60" as="geometry" />
        </mxCell>
        <mxCell id="QqMulurOwwWM-U0ntgR_-29" value="Редактирование" style="rounded=1;whiteSpace=wrap;html=1;" vertex="1" parent="1">
          <mxGeometry x="640" y="320" width="120" height="60" as="geometry" />
        </mxCell>
        <mxCell id="QqMulurOwwWM-U0ntgR_-30" value="Удаление" style="rounded=1;whiteSpace=wrap;html=1;" vertex="1" parent="1">
          <mxGeometry x="640" y="390" width="120" height="60" as="geometry" />
        </mxCell>
        <mxCell id="sJPmTYBkVExX-pVa-28G-1" value="Поиск" style="rounded=1;whiteSpace=wrap;html=1;" vertex="1" parent="1">
          <mxGeometry x="640" y="460" width="120" height="60" as="geometry" />
        </mxCell>
        <mxCell id="sJPmTYBkVExX-pVa-28G-3" style="edgeStyle=orthogonalEdgeStyle;rounded=0;orthogonalLoop=1;jettySize=auto;html=1;exitX=0.25;exitY=1;exitDx=0;exitDy=0;entryX=0;entryY=0.5;entryDx=0;entryDy=0;" edge="1" parent="1" source="sJPmTYBkVExX-pVa-28G-7" target="sJPmTYBkVExX-pVa-28G-8">
          <mxGeometry relative="1" as="geometry" />
        </mxCell>
        <mxCell id="sJPmTYBkVExX-pVa-28G-5" style="edgeStyle=orthogonalEdgeStyle;rounded=0;orthogonalLoop=1;jettySize=auto;html=1;exitX=0.25;exitY=1;exitDx=0;exitDy=0;entryX=0;entryY=0.5;entryDx=0;entryDy=0;" edge="1" parent="1" source="sJPmTYBkVExX-pVa-28G-7" target="sJPmTYBkVExX-pVa-28G-10">
          <mxGeometry relative="1" as="geometry" />
        </mxCell>
        <mxCell id="sJPmTYBkVExX-pVa-28G-6" style="edgeStyle=orthogonalEdgeStyle;rounded=0;orthogonalLoop=1;jettySize=auto;html=1;exitX=0.25;exitY=1;exitDx=0;exitDy=0;entryX=0;entryY=0.5;entryDx=0;entryDy=0;" edge="1" parent="1" source="sJPmTYBkVExX-pVa-28G-7" target="sJPmTYBkVExX-pVa-28G-11">
          <mxGeometry relative="1" as="geometry" />
        </mxCell>
        <mxCell id="sJPmTYBkVExX-pVa-28G-7" value="Подсистема создания отзыва" style="rounded=1;whiteSpace=wrap;html=1;" vertex="1" parent="1">
          <mxGeometry x="760" y="170" width="120" height="60" as="geometry" />
        </mxCell>
        <mxCell id="sJPmTYBkVExX-pVa-28G-8" value="Ввод ФИО, комментария и оценки" style="rounded=1;whiteSpace=wrap;html=1;" vertex="1" parent="1">
          <mxGeometry x="810" y="250" width="120" height="60" as="geometry" />
        </mxCell>
        <mxCell id="sJPmTYBkVExX-pVa-28G-10" value="Удаление" style="rounded=1;whiteSpace=wrap;html=1;" vertex="1" parent="1">
          <mxGeometry x="810" y="320" width="120" height="60" as="geometry" />
        </mxCell>
        <mxCell id="sJPmTYBkVExX-pVa-28G-11" value="Поиск" style="rounded=1;whiteSpace=wrap;html=1;" vertex="1" parent="1">
          <mxGeometry x="810" y="390" width="120" height="60" as="geometry" />
        </mxCell>
        <mxCell id="eUGmkUE09nqFIzQmqo73-1" style="edgeStyle=orthogonalEdgeStyle;rounded=0;orthogonalLoop=1;jettySize=auto;html=1;exitX=0.25;exitY=1;exitDx=0;exitDy=0;entryX=0;entryY=0.5;entryDx=0;entryDy=0;" edge="1" parent="1" source="eUGmkUE09nqFIzQmqo73-5" target="eUGmkUE09nqFIzQmqo73-6">
          <mxGeometry relative="1" as="geometry" />
        </mxCell>
        <mxCell id="eUGmkUE09nqFIzQmqo73-2" style="edgeStyle=orthogonalEdgeStyle;rounded=0;orthogonalLoop=1;jettySize=auto;html=1;exitX=0.25;exitY=1;exitDx=0;exitDy=0;entryX=0;entryY=0.5;entryDx=0;entryDy=0;" edge="1" parent="1" source="eUGmkUE09nqFIzQmqo73-5" target="eUGmkUE09nqFIzQmqo73-7">
          <mxGeometry relative="1" as="geometry" />
        </mxCell>
        <mxCell id="eUGmkUE09nqFIzQmqo73-3" style="edgeStyle=orthogonalEdgeStyle;rounded=0;orthogonalLoop=1;jettySize=auto;html=1;exitX=0.25;exitY=1;exitDx=0;exitDy=0;entryX=0;entryY=0.5;entryDx=0;entryDy=0;" edge="1" parent="1" source="eUGmkUE09nqFIzQmqo73-5" target="eUGmkUE09nqFIzQmqo73-8">
          <mxGeometry relative="1" as="geometry" />
        </mxCell>
        <mxCell id="eUGmkUE09nqFIzQmqo73-4" style="edgeStyle=orthogonalEdgeStyle;rounded=0;orthogonalLoop=1;jettySize=auto;html=1;exitX=0.25;exitY=1;exitDx=0;exitDy=0;entryX=0;entryY=0.5;entryDx=0;entryDy=0;" edge="1" parent="1" source="eUGmkUE09nqFIzQmqo73-5" target="eUGmkUE09nqFIzQmqo73-9">
          <mxGeometry relative="1" as="geometry" />
        </mxCell>
        <mxCell id="GIjNHOJQrt4NMB0BYO7n-2" style="edgeStyle=orthogonalEdgeStyle;rounded=0;orthogonalLoop=1;jettySize=auto;html=1;exitX=0.25;exitY=1;exitDx=0;exitDy=0;entryX=0;entryY=0.5;entryDx=0;entryDy=0;" edge="1" parent="1" source="eUGmkUE09nqFIzQmqo73-5" target="GIjNHOJQrt4NMB0BYO7n-1">
          <mxGeometry relative="1" as="geometry" />
        </mxCell>
        <mxCell id="eUGmkUE09nqFIzQmqo73-5" value="Подсистема создания бронирования" style="rounded=1;whiteSpace=wrap;html=1;" vertex="1" parent="1">
          <mxGeometry x="930" y="170" width="120" height="60" as="geometry" />
        </mxCell>
        <mxCell id="eUGmkUE09nqFIzQmqo73-6" value="&amp;nbsp;Ввод даты, времени, процедуры" style="rounded=1;whiteSpace=wrap;html=1;" vertex="1" parent="1">
          <mxGeometry x="980" y="250" width="120" height="60" as="geometry" />
        </mxCell>
        <mxCell id="eUGmkUE09nqFIzQmqo73-7" value="Редактирование" style="rounded=1;whiteSpace=wrap;html=1;" vertex="1" parent="1">
          <mxGeometry x="980" y="320" width="120" height="60" as="geometry" />
        </mxCell>
        <mxCell id="eUGmkUE09nqFIzQmqo73-8" value="Удаление" style="rounded=1;whiteSpace=wrap;html=1;" vertex="1" parent="1">
          <mxGeometry x="980" y="390" width="120" height="60" as="geometry" />
        </mxCell>
        <mxCell id="eUGmkUE09nqFIzQmqo73-9" value="Поиск" style="rounded=1;whiteSpace=wrap;html=1;" vertex="1" parent="1">
          <mxGeometry x="980" y="460" width="120" height="60" as="geometry" />
        </mxCell>
        <mxCell id="GIjNHOJQrt4NMB0BYO7n-1" value="Оповещение клиента о создании, редактирования и удаления брони" style="rounded=1;whiteSpace=wrap;html=1;" vertex="1" parent="1">
          <mxGeometry x="980" y="530" width="120" height="60" as="geometry" />
        </mxCell>
        <mxCell id="5P2e2N6zzCowRKepvoV_-1" style="edgeStyle=orthogonalEdgeStyle;rounded=0;orthogonalLoop=1;jettySize=auto;html=1;exitX=0.25;exitY=1;exitDx=0;exitDy=0;entryX=0;entryY=0.5;entryDx=0;entryDy=0;" edge="1" parent="1" source="5P2e2N6zzCowRKepvoV_-5" target="5P2e2N6zzCowRKepvoV_-6">
          <mxGeometry relative="1" as="geometry" />
        </mxCell>
        <mxCell id="5P2e2N6zzCowRKepvoV_-2" style="edgeStyle=orthogonalEdgeStyle;rounded=0;orthogonalLoop=1;jettySize=auto;html=1;exitX=0.25;exitY=1;exitDx=0;exitDy=0;entryX=0;entryY=0.5;entryDx=0;entryDy=0;" edge="1" parent="1" source="5P2e2N6zzCowRKepvoV_-5" target="5P2e2N6zzCowRKepvoV_-7">
          <mxGeometry relative="1" as="geometry" />
        </mxCell>
        <mxCell id="5P2e2N6zzCowRKepvoV_-3" style="edgeStyle=orthogonalEdgeStyle;rounded=0;orthogonalLoop=1;jettySize=auto;html=1;exitX=0.25;exitY=1;exitDx=0;exitDy=0;entryX=0;entryY=0.5;entryDx=0;entryDy=0;" edge="1" parent="1" source="5P2e2N6zzCowRKepvoV_-5" target="5P2e2N6zzCowRKepvoV_-8">
          <mxGeometry relative="1" as="geometry" />
        </mxCell>
        <mxCell id="5P2e2N6zzCowRKepvoV_-5" value="Подсистема создания новостей" style="rounded=1;whiteSpace=wrap;html=1;" vertex="1" parent="1">
          <mxGeometry x="1100" y="170" width="120" height="60" as="geometry" />
        </mxCell>
        <mxCell id="5P2e2N6zzCowRKepvoV_-6" value="&amp;nbsp;Ввод контента новости" style="rounded=1;whiteSpace=wrap;html=1;" vertex="1" parent="1">
          <mxGeometry x="1150" y="250" width="120" height="60" as="geometry" />
        </mxCell>
        <mxCell id="5P2e2N6zzCowRKepvoV_-7" value="Редактирование" style="rounded=1;whiteSpace=wrap;html=1;" vertex="1" parent="1">
          <mxGeometry x="1150" y="320" width="120" height="60" as="geometry" />
        </mxCell>
        <mxCell id="5P2e2N6zzCowRKepvoV_-8" value="Удаление" style="rounded=1;whiteSpace=wrap;html=1;" vertex="1" parent="1">
          <mxGeometry x="1150" y="390" width="120" height="60" as="geometry" />
        </mxCell>
        <mxCell id="5P2e2N6zzCowRKepvoV_-11" style="edgeStyle=orthogonalEdgeStyle;rounded=0;orthogonalLoop=1;jettySize=auto;html=1;exitX=0.25;exitY=1;exitDx=0;exitDy=0;entryX=0;entryY=0.5;entryDx=0;entryDy=0;" edge="1" parent="1" source="5P2e2N6zzCowRKepvoV_-14" target="5P2e2N6zzCowRKepvoV_-15">
          <mxGeometry relative="1" as="geometry" />
        </mxCell>
        <mxCell id="5P2e2N6zzCowRKepvoV_-14" value="Подсистема планирвоание рабочего времени" style="rounded=1;whiteSpace=wrap;html=1;" vertex="1" parent="1">
          <mxGeometry x="1270" y="170" width="120" height="60" as="geometry" />
        </mxCell>
        <mxCell id="5P2e2N6zzCowRKepvoV_-15" value="Ввод рабочих дней, рабочего времени" style="rounded=1;whiteSpace=wrap;html=1;" vertex="1" parent="1">
          <mxGeometry x="1320" y="250" width="120" height="60" as="geometry" />
        </mxCell>
      </root>
    </mxGraphModel>
  </diagram>
  <diagram id="YFMtFLKlDOorjxA1i-cv" name="Функциональная схема">
    <mxGraphModel dx="4027" dy="2347" grid="1" gridSize="10" guides="1" tooltips="1" connect="1" arrows="1" fold="1" page="1" pageScale="1" pageWidth="827" pageHeight="1169" math="0" shadow="0">
      <root>
        <mxCell id="0" />
        <mxCell id="1" parent="0" />
        <mxCell id="9PrhW-YELXMRdit4gi3W-3" style="edgeStyle=orthogonalEdgeStyle;rounded=0;orthogonalLoop=1;jettySize=auto;html=1;exitX=0.5;exitY=1;exitDx=0;exitDy=0;entryX=0.5;entryY=0;entryDx=0;entryDy=0;" edge="1" parent="1" source="9PrhW-YELXMRdit4gi3W-1">
          <mxGeometry relative="1" as="geometry">
            <mxPoint x="410" y="200" as="targetPoint" />
          </mxGeometry>
        </mxCell>
        <mxCell id="9PrhW-YELXMRdit4gi3W-1" value="Начало" style="ellipse;whiteSpace=wrap;html=1;" vertex="1" parent="1">
          <mxGeometry x="350" y="90" width="120" height="80" as="geometry" />
        </mxCell>
        <mxCell id="9PrhW-YELXMRdit4gi3W-4" value="Открытие страницы&amp;nbsp;&lt;br&gt;тут название твоег опроекта" style="rounded=0;whiteSpace=wrap;html=1;" vertex="1" parent="1">
          <mxGeometry x="350" y="200" width="120" height="60" as="geometry" />
        </mxCell>
        <mxCell id="9PrhW-YELXMRdit4gi3W-8" style="edgeStyle=orthogonalEdgeStyle;rounded=0;orthogonalLoop=1;jettySize=auto;html=1;exitX=0;exitY=0.5;exitDx=0;exitDy=0;entryX=1;entryY=0.5;entryDx=0;entryDy=0;" edge="1" parent="1" source="9PrhW-YELXMRdit4gi3W-5" target="9PrhW-YELXMRdit4gi3W-7">
          <mxGeometry relative="1" as="geometry" />
        </mxCell>
        <mxCell id="9PrhW-YELXMRdit4gi3W-14" style="edgeStyle=orthogonalEdgeStyle;rounded=0;orthogonalLoop=1;jettySize=auto;html=1;exitX=1;exitY=0.5;exitDx=0;exitDy=0;entryX=0.5;entryY=1;entryDx=0;entryDy=0;" edge="1" parent="1" source="9PrhW-YELXMRdit4gi3W-5" target="9PrhW-YELXMRdit4gi3W-13">
          <mxGeometry relative="1" as="geometry" />
        </mxCell>
        <mxCell id="9PrhW-YELXMRdit4gi3W-43" style="edgeStyle=orthogonalEdgeStyle;rounded=0;orthogonalLoop=1;jettySize=auto;html=1;exitX=0.5;exitY=1;exitDx=0;exitDy=0;entryX=0.5;entryY=0;entryDx=0;entryDy=0;" edge="1" parent="1" source="9PrhW-YELXMRdit4gi3W-5" target="9PrhW-YELXMRdit4gi3W-26">
          <mxGeometry relative="1" as="geometry" />
        </mxCell>
        <mxCell id="9PrhW-YELXMRdit4gi3W-5" value="Идентификация пользователя" style="rounded=0;whiteSpace=wrap;html=1;" vertex="1" parent="1">
          <mxGeometry x="350" y="280" width="120" height="60" as="geometry" />
        </mxCell>
        <mxCell id="9PrhW-YELXMRdit4gi3W-6" value="ok_brows_db" style="shape=cylinder3;whiteSpace=wrap;html=1;boundedLbl=1;backgroundOutline=1;size=15;" vertex="1" parent="1">
          <mxGeometry x="180" y="317.5" width="130" height="70" as="geometry" />
        </mxCell>
        <mxCell id="9PrhW-YELXMRdit4gi3W-7" value="Ввод данных" style="html=1;strokeWidth=2;shape=manualInput;whiteSpace=wrap;rounded=1;size=26;arcSize=11;" vertex="1" parent="1">
          <mxGeometry x="180" y="232.5" width="130" height="70" as="geometry" />
        </mxCell>
        <mxCell id="9PrhW-YELXMRdit4gi3W-9" style="edgeStyle=orthogonalEdgeStyle;rounded=0;orthogonalLoop=1;jettySize=auto;html=1;exitX=0;exitY=0.5;exitDx=0;exitDy=0;entryX=1;entryY=0.5;entryDx=0;entryDy=0;entryPerimeter=0;" edge="1" parent="1" source="9PrhW-YELXMRdit4gi3W-5" target="9PrhW-YELXMRdit4gi3W-6">
          <mxGeometry relative="1" as="geometry" />
        </mxCell>
        <mxCell id="9PrhW-YELXMRdit4gi3W-16" value="" style="group" vertex="1" connectable="0" parent="1">
          <mxGeometry x="510" y="275" width="130" height="70" as="geometry" />
        </mxCell>
        <mxCell id="9PrhW-YELXMRdit4gi3W-13" value="" style="verticalLabelPosition=bottom;verticalAlign=top;html=1;shape=offPageConnector;rounded=0;size=0.5;rotation=90;" vertex="1" parent="9PrhW-YELXMRdit4gi3W-16">
          <mxGeometry x="30" y="-30" width="70" height="130" as="geometry" />
        </mxCell>
        <mxCell id="9PrhW-YELXMRdit4gi3W-15" value="Ответ пользователю" style="text;html=1;align=center;verticalAlign=middle;whiteSpace=wrap;rounded=0;" vertex="1" parent="9PrhW-YELXMRdit4gi3W-16">
          <mxGeometry x="60" y="20" width="60" height="30" as="geometry" />
        </mxCell>
        <mxCell id="9PrhW-YELXMRdit4gi3W-17" value="" style="group" vertex="1" connectable="0" parent="1">
          <mxGeometry x="10" y="260" width="130" height="52" as="geometry" />
        </mxCell>
        <mxCell id="9PrhW-YELXMRdit4gi3W-10" value="" style="strokeWidth=2;html=1;shape=mxgraph.flowchart.annotation_1;align=left;pointerEvents=1;rotation=-180;" vertex="1" parent="9PrhW-YELXMRdit4gi3W-17">
          <mxGeometry x="80" width="50" height="52" as="geometry" />
        </mxCell>
        <mxCell id="9PrhW-YELXMRdit4gi3W-11" value="Требуеться телефон ли почта и пароль" style="text;html=1;align=center;verticalAlign=middle;whiteSpace=wrap;rounded=0;" vertex="1" parent="9PrhW-YELXMRdit4gi3W-17">
          <mxGeometry y="11" width="120" height="30" as="geometry" />
        </mxCell>
        <mxCell id="9PrhW-YELXMRdit4gi3W-12" value="" style="endArrow=none;dashed=1;html=1;dashPattern=1 3;strokeWidth=2;rounded=0;exitX=0;exitY=0.5;exitDx=0;exitDy=0;exitPerimeter=0;entryX=0;entryY=0.75;entryDx=0;entryDy=0;" edge="1" parent="9PrhW-YELXMRdit4gi3W-17" source="9PrhW-YELXMRdit4gi3W-10" target="9PrhW-YELXMRdit4gi3W-7">
          <mxGeometry width="50" height="50" relative="1" as="geometry">
            <mxPoint x="160" y="-20" as="sourcePoint" />
            <mxPoint x="210" y="-70" as="targetPoint" />
          </mxGeometry>
        </mxCell>
        <mxCell id="9PrhW-YELXMRdit4gi3W-18" value="" style="group;rotation=0;" vertex="1" connectable="0" parent="1">
          <mxGeometry x="697" y="269" width="130" height="82" as="geometry" />
        </mxCell>
        <mxCell id="9PrhW-YELXMRdit4gi3W-19" value="" style="strokeWidth=2;html=1;shape=mxgraph.flowchart.annotation_1;align=left;pointerEvents=1;rotation=0;" vertex="1" parent="9PrhW-YELXMRdit4gi3W-18">
          <mxGeometry width="50" height="82" as="geometry" />
        </mxCell>
        <mxCell id="9PrhW-YELXMRdit4gi3W-20" value="Ответ в виде сообщения об успешной авторизации или ошибке" style="text;html=1;align=center;verticalAlign=middle;whiteSpace=wrap;rounded=0;rotation=0;" vertex="1" parent="9PrhW-YELXMRdit4gi3W-18">
          <mxGeometry y="17.346153846153847" width="120" height="47.30769230769231" as="geometry" />
        </mxCell>
        <mxCell id="9PrhW-YELXMRdit4gi3W-23" value="" style="endArrow=none;dashed=1;html=1;dashPattern=1 3;strokeWidth=2;rounded=0;exitX=0.5;exitY=0;exitDx=0;exitDy=0;entryX=0;entryY=0.5;entryDx=0;entryDy=0;entryPerimeter=0;" edge="1" parent="1" source="9PrhW-YELXMRdit4gi3W-13" target="9PrhW-YELXMRdit4gi3W-19">
          <mxGeometry width="50" height="50" relative="1" as="geometry">
            <mxPoint x="630" y="420" as="sourcePoint" />
            <mxPoint x="680" y="370" as="targetPoint" />
          </mxGeometry>
        </mxCell>
        <mxCell id="9PrhW-YELXMRdit4gi3W-24" style="edgeStyle=orthogonalEdgeStyle;rounded=0;orthogonalLoop=1;jettySize=auto;html=1;exitX=0;exitY=0.5;exitDx=0;exitDy=0;entryX=1;entryY=0.5;entryDx=0;entryDy=0;" edge="1" parent="1" source="9PrhW-YELXMRdit4gi3W-26" target="9PrhW-YELXMRdit4gi3W-28">
          <mxGeometry relative="1" as="geometry" />
        </mxCell>
        <mxCell id="9PrhW-YELXMRdit4gi3W-25" style="edgeStyle=orthogonalEdgeStyle;rounded=0;orthogonalLoop=1;jettySize=auto;html=1;exitX=1;exitY=0.5;exitDx=0;exitDy=0;entryX=0.5;entryY=1;entryDx=0;entryDy=0;" edge="1" parent="1" source="9PrhW-YELXMRdit4gi3W-26" target="9PrhW-YELXMRdit4gi3W-31">
          <mxGeometry relative="1" as="geometry" />
        </mxCell>
        <mxCell id="9PrhW-YELXMRdit4gi3W-45" style="edgeStyle=orthogonalEdgeStyle;rounded=0;orthogonalLoop=1;jettySize=auto;html=1;exitX=0.5;exitY=1;exitDx=0;exitDy=0;entryX=0.5;entryY=0;entryDx=0;entryDy=0;" edge="1" parent="1" source="9PrhW-YELXMRdit4gi3W-26" target="9PrhW-YELXMRdit4gi3W-44">
          <mxGeometry relative="1" as="geometry" />
        </mxCell>
        <mxCell id="9PrhW-YELXMRdit4gi3W-26" value="Регистрация" style="rounded=0;whiteSpace=wrap;html=1;" vertex="1" parent="1">
          <mxGeometry x="350" y="445" width="120" height="60" as="geometry" />
        </mxCell>
        <mxCell id="9PrhW-YELXMRdit4gi3W-27" value="ok_brows_db" style="shape=cylinder3;whiteSpace=wrap;html=1;boundedLbl=1;backgroundOutline=1;size=15;" vertex="1" parent="1">
          <mxGeometry x="180" y="482.5" width="130" height="70" as="geometry" />
        </mxCell>
        <mxCell id="9PrhW-YELXMRdit4gi3W-28" value="Ввод данных" style="html=1;strokeWidth=2;shape=manualInput;whiteSpace=wrap;rounded=1;size=26;arcSize=11;" vertex="1" parent="1">
          <mxGeometry x="180" y="397.5" width="130" height="70" as="geometry" />
        </mxCell>
        <mxCell id="9PrhW-YELXMRdit4gi3W-29" style="edgeStyle=orthogonalEdgeStyle;rounded=0;orthogonalLoop=1;jettySize=auto;html=1;exitX=0;exitY=0.5;exitDx=0;exitDy=0;entryX=1;entryY=0.5;entryDx=0;entryDy=0;entryPerimeter=0;" edge="1" parent="1" source="9PrhW-YELXMRdit4gi3W-26" target="9PrhW-YELXMRdit4gi3W-27">
          <mxGeometry relative="1" as="geometry" />
        </mxCell>
        <mxCell id="9PrhW-YELXMRdit4gi3W-30" value="" style="group" vertex="1" connectable="0" parent="1">
          <mxGeometry x="515" y="393.5" width="130" height="70" as="geometry" />
        </mxCell>
        <mxCell id="9PrhW-YELXMRdit4gi3W-31" value="" style="verticalLabelPosition=bottom;verticalAlign=top;html=1;shape=offPageConnector;rounded=0;size=0.5;rotation=90;" vertex="1" parent="9PrhW-YELXMRdit4gi3W-30">
          <mxGeometry x="30" y="-30" width="70" height="130" as="geometry" />
        </mxCell>
        <mxCell id="9PrhW-YELXMRdit4gi3W-32" value="Ответ пользователю" style="text;html=1;align=center;verticalAlign=middle;whiteSpace=wrap;rounded=0;" vertex="1" parent="9PrhW-YELXMRdit4gi3W-30">
          <mxGeometry x="60" y="20" width="60" height="30" as="geometry" />
        </mxCell>
        <mxCell id="9PrhW-YELXMRdit4gi3W-33" value="" style="group" vertex="1" connectable="0" parent="1">
          <mxGeometry x="10" y="425" width="130" height="52" as="geometry" />
        </mxCell>
        <mxCell id="9PrhW-YELXMRdit4gi3W-34" value="" style="strokeWidth=2;html=1;shape=mxgraph.flowchart.annotation_1;align=left;pointerEvents=1;rotation=-180;" vertex="1" parent="9PrhW-YELXMRdit4gi3W-33">
          <mxGeometry x="80" width="50" height="52" as="geometry" />
        </mxCell>
        <mxCell id="9PrhW-YELXMRdit4gi3W-35" value="Требуеться телефон, почта, ФИО и пароль" style="text;html=1;align=center;verticalAlign=middle;whiteSpace=wrap;rounded=0;" vertex="1" parent="9PrhW-YELXMRdit4gi3W-33">
          <mxGeometry y="11" width="120" height="30" as="geometry" />
        </mxCell>
        <mxCell id="9PrhW-YELXMRdit4gi3W-36" value="" style="endArrow=none;dashed=1;html=1;dashPattern=1 3;strokeWidth=2;rounded=0;exitX=0;exitY=0.5;exitDx=0;exitDy=0;exitPerimeter=0;entryX=0;entryY=0.75;entryDx=0;entryDy=0;" edge="1" parent="1" source="9PrhW-YELXMRdit4gi3W-34" target="9PrhW-YELXMRdit4gi3W-28">
          <mxGeometry width="50" height="50" relative="1" as="geometry">
            <mxPoint x="170" y="405" as="sourcePoint" />
            <mxPoint x="220" y="355" as="targetPoint" />
          </mxGeometry>
        </mxCell>
        <mxCell id="9PrhW-YELXMRdit4gi3W-37" value="" style="group;rotation=0;" vertex="1" connectable="0" parent="1">
          <mxGeometry x="702" y="387.5" width="130" height="82" as="geometry" />
        </mxCell>
        <mxCell id="9PrhW-YELXMRdit4gi3W-38" value="" style="strokeWidth=2;html=1;shape=mxgraph.flowchart.annotation_1;align=left;pointerEvents=1;rotation=0;" vertex="1" parent="9PrhW-YELXMRdit4gi3W-37">
          <mxGeometry width="50" height="82" as="geometry" />
        </mxCell>
        <mxCell id="9PrhW-YELXMRdit4gi3W-39" value="Ответ в виде сообщения об успешной регистрации или ошибке" style="text;html=1;align=center;verticalAlign=middle;whiteSpace=wrap;rounded=0;rotation=0;" vertex="1" parent="9PrhW-YELXMRdit4gi3W-37">
          <mxGeometry y="17.346153846153847" width="120" height="47.30769230769231" as="geometry" />
        </mxCell>
        <mxCell id="9PrhW-YELXMRdit4gi3W-40" value="" style="endArrow=none;dashed=1;html=1;dashPattern=1 3;strokeWidth=2;rounded=0;exitX=0.5;exitY=0;exitDx=0;exitDy=0;entryX=0;entryY=0.5;entryDx=0;entryDy=0;entryPerimeter=0;" edge="1" parent="1" source="9PrhW-YELXMRdit4gi3W-31" target="9PrhW-YELXMRdit4gi3W-38">
          <mxGeometry width="50" height="50" relative="1" as="geometry">
            <mxPoint x="635" y="538.5" as="sourcePoint" />
            <mxPoint x="685" y="488.5" as="targetPoint" />
          </mxGeometry>
        </mxCell>
        <mxCell id="9PrhW-YELXMRdit4gi3W-41" value="ok_brows_db" style="shape=cylinder3;whiteSpace=wrap;html=1;boundedLbl=1;backgroundOutline=1;size=15;" vertex="1" parent="1">
          <mxGeometry x="515" y="482.5" width="130" height="70" as="geometry" />
        </mxCell>
        <mxCell id="9PrhW-YELXMRdit4gi3W-42" style="edgeStyle=orthogonalEdgeStyle;rounded=0;orthogonalLoop=1;jettySize=auto;html=1;exitX=1;exitY=0.5;exitDx=0;exitDy=0;entryX=0;entryY=0.5;entryDx=0;entryDy=0;entryPerimeter=0;" edge="1" parent="1" source="9PrhW-YELXMRdit4gi3W-26" target="9PrhW-YELXMRdit4gi3W-41">
          <mxGeometry relative="1" as="geometry" />
        </mxCell>
        <mxCell id="9PrhW-YELXMRdit4gi3W-48" style="edgeStyle=orthogonalEdgeStyle;rounded=0;orthogonalLoop=1;jettySize=auto;html=1;exitX=0;exitY=0.5;exitDx=0;exitDy=0;entryX=0.5;entryY=0;entryDx=0;entryDy=0;" edge="1" parent="1" source="9PrhW-YELXMRdit4gi3W-44" target="9PrhW-YELXMRdit4gi3W-46">
          <mxGeometry relative="1" as="geometry" />
        </mxCell>
        <mxCell id="9PrhW-YELXMRdit4gi3W-49" style="edgeStyle=orthogonalEdgeStyle;rounded=0;orthogonalLoop=1;jettySize=auto;html=1;exitX=1;exitY=0.5;exitDx=0;exitDy=0;entryX=0.5;entryY=0;entryDx=0;entryDy=0;" edge="1" parent="1" source="9PrhW-YELXMRdit4gi3W-44" target="9PrhW-YELXMRdit4gi3W-47">
          <mxGeometry relative="1" as="geometry" />
        </mxCell>
        <mxCell id="9PrhW-YELXMRdit4gi3W-44" value="Роли" style="rhombus;whiteSpace=wrap;html=1;" vertex="1" parent="1">
          <mxGeometry x="335" y="552.5" width="150" height="80" as="geometry" />
        </mxCell>
        <mxCell id="9PrhW-YELXMRdit4gi3W-212" style="edgeStyle=orthogonalEdgeStyle;rounded=0;orthogonalLoop=1;jettySize=auto;html=1;exitX=0.5;exitY=1;exitDx=0;exitDy=0;entryX=0.5;entryY=0;entryDx=0;entryDy=0;" edge="1" parent="1" source="9PrhW-YELXMRdit4gi3W-46" target="9PrhW-YELXMRdit4gi3W-203">
          <mxGeometry relative="1" as="geometry" />
        </mxCell>
        <mxCell id="9PrhW-YELXMRdit4gi3W-46" value="Пользователь" style="ellipse;whiteSpace=wrap;html=1;aspect=fixed;" vertex="1" parent="1">
          <mxGeometry x="30" y="710" width="80" height="80" as="geometry" />
        </mxCell>
        <mxCell id="9PrhW-YELXMRdit4gi3W-70" style="edgeStyle=orthogonalEdgeStyle;rounded=0;orthogonalLoop=1;jettySize=auto;html=1;exitX=0.5;exitY=1;exitDx=0;exitDy=0;entryX=0.5;entryY=0;entryDx=0;entryDy=0;" edge="1" parent="1" source="9PrhW-YELXMRdit4gi3W-47" target="9PrhW-YELXMRdit4gi3W-53">
          <mxGeometry relative="1" as="geometry" />
        </mxCell>
        <mxCell id="9PrhW-YELXMRdit4gi3W-47" value="Администратор" style="ellipse;whiteSpace=wrap;html=1;aspect=fixed;" vertex="1" parent="1">
          <mxGeometry x="722" y="710" width="80" height="80" as="geometry" />
        </mxCell>
        <mxCell id="9PrhW-YELXMRdit4gi3W-50" style="edgeStyle=orthogonalEdgeStyle;rounded=0;orthogonalLoop=1;jettySize=auto;html=1;exitX=0;exitY=0.5;exitDx=0;exitDy=0;entryX=1;entryY=0.5;entryDx=0;entryDy=0;" edge="1" parent="1" source="9PrhW-YELXMRdit4gi3W-53" target="9PrhW-YELXMRdit4gi3W-55">
          <mxGeometry relative="1" as="geometry" />
        </mxCell>
        <mxCell id="9PrhW-YELXMRdit4gi3W-51" style="edgeStyle=orthogonalEdgeStyle;rounded=0;orthogonalLoop=1;jettySize=auto;html=1;exitX=1;exitY=0.5;exitDx=0;exitDy=0;entryX=0.5;entryY=1;entryDx=0;entryDy=0;" edge="1" parent="1" source="9PrhW-YELXMRdit4gi3W-53" target="9PrhW-YELXMRdit4gi3W-58">
          <mxGeometry relative="1" as="geometry" />
        </mxCell>
        <mxCell id="9PrhW-YELXMRdit4gi3W-52" style="edgeStyle=orthogonalEdgeStyle;rounded=0;orthogonalLoop=1;jettySize=auto;html=1;exitX=0.5;exitY=1;exitDx=0;exitDy=0;entryX=0.5;entryY=0;entryDx=0;entryDy=0;" edge="1" parent="1" source="9PrhW-YELXMRdit4gi3W-53" target="9PrhW-YELXMRdit4gi3W-75">
          <mxGeometry relative="1" as="geometry">
            <mxPoint x="760" y="975.5" as="targetPoint" />
          </mxGeometry>
        </mxCell>
        <mxCell id="9PrhW-YELXMRdit4gi3W-53" value="Планирование рабочего времени" style="rounded=0;whiteSpace=wrap;html=1;" vertex="1" parent="1">
          <mxGeometry x="700" y="867.5" width="120" height="60" as="geometry" />
        </mxCell>
        <mxCell id="9PrhW-YELXMRdit4gi3W-54" value="ok_brows_db" style="shape=cylinder3;whiteSpace=wrap;html=1;boundedLbl=1;backgroundOutline=1;size=15;" vertex="1" parent="1">
          <mxGeometry x="530" y="905" width="130" height="70" as="geometry" />
        </mxCell>
        <mxCell id="9PrhW-YELXMRdit4gi3W-55" value="Ввод данных" style="html=1;strokeWidth=2;shape=manualInput;whiteSpace=wrap;rounded=1;size=26;arcSize=11;" vertex="1" parent="1">
          <mxGeometry x="530" y="820" width="130" height="70" as="geometry" />
        </mxCell>
        <mxCell id="9PrhW-YELXMRdit4gi3W-56" style="edgeStyle=orthogonalEdgeStyle;rounded=0;orthogonalLoop=1;jettySize=auto;html=1;exitX=0;exitY=0.5;exitDx=0;exitDy=0;entryX=1;entryY=0.5;entryDx=0;entryDy=0;entryPerimeter=0;" edge="1" parent="1" source="9PrhW-YELXMRdit4gi3W-53" target="9PrhW-YELXMRdit4gi3W-54">
          <mxGeometry relative="1" as="geometry" />
        </mxCell>
        <mxCell id="9PrhW-YELXMRdit4gi3W-57" value="" style="group" vertex="1" connectable="0" parent="1">
          <mxGeometry x="865" y="816" width="130" height="70" as="geometry" />
        </mxCell>
        <mxCell id="9PrhW-YELXMRdit4gi3W-58" value="" style="verticalLabelPosition=bottom;verticalAlign=top;html=1;shape=offPageConnector;rounded=0;size=0.5;rotation=90;" vertex="1" parent="9PrhW-YELXMRdit4gi3W-57">
          <mxGeometry x="30" y="-30" width="70" height="130" as="geometry" />
        </mxCell>
        <mxCell id="9PrhW-YELXMRdit4gi3W-59" value="Ответ пользователю" style="text;html=1;align=center;verticalAlign=middle;whiteSpace=wrap;rounded=0;" vertex="1" parent="9PrhW-YELXMRdit4gi3W-57">
          <mxGeometry x="60" y="20" width="60" height="30" as="geometry" />
        </mxCell>
        <mxCell id="9PrhW-YELXMRdit4gi3W-68" value="ok_brows_db" style="shape=cylinder3;whiteSpace=wrap;html=1;boundedLbl=1;backgroundOutline=1;size=15;" vertex="1" parent="1">
          <mxGeometry x="865" y="905" width="130" height="70" as="geometry" />
        </mxCell>
        <mxCell id="9PrhW-YELXMRdit4gi3W-69" style="edgeStyle=orthogonalEdgeStyle;rounded=0;orthogonalLoop=1;jettySize=auto;html=1;exitX=1;exitY=0.5;exitDx=0;exitDy=0;entryX=0;entryY=0.5;entryDx=0;entryDy=0;entryPerimeter=0;" edge="1" parent="1" source="9PrhW-YELXMRdit4gi3W-53" target="9PrhW-YELXMRdit4gi3W-68">
          <mxGeometry relative="1" as="geometry" />
        </mxCell>
        <mxCell id="9PrhW-YELXMRdit4gi3W-72" style="edgeStyle=orthogonalEdgeStyle;rounded=0;orthogonalLoop=1;jettySize=auto;html=1;exitX=0;exitY=0.5;exitDx=0;exitDy=0;entryX=1;entryY=0.5;entryDx=0;entryDy=0;" edge="1" parent="1" source="9PrhW-YELXMRdit4gi3W-75" target="9PrhW-YELXMRdit4gi3W-77">
          <mxGeometry relative="1" as="geometry" />
        </mxCell>
        <mxCell id="9PrhW-YELXMRdit4gi3W-73" style="edgeStyle=orthogonalEdgeStyle;rounded=0;orthogonalLoop=1;jettySize=auto;html=1;exitX=1;exitY=0.5;exitDx=0;exitDy=0;entryX=0.5;entryY=1;entryDx=0;entryDy=0;" edge="1" parent="1" source="9PrhW-YELXMRdit4gi3W-75" target="9PrhW-YELXMRdit4gi3W-80">
          <mxGeometry relative="1" as="geometry" />
        </mxCell>
        <mxCell id="9PrhW-YELXMRdit4gi3W-74" style="edgeStyle=orthogonalEdgeStyle;rounded=0;orthogonalLoop=1;jettySize=auto;html=1;exitX=0.5;exitY=1;exitDx=0;exitDy=0;entryX=0.5;entryY=0;entryDx=0;entryDy=0;" edge="1" parent="1" source="9PrhW-YELXMRdit4gi3W-75" target="9PrhW-YELXMRdit4gi3W-95">
          <mxGeometry relative="1" as="geometry">
            <mxPoint x="760" y="1175.5" as="targetPoint" />
          </mxGeometry>
        </mxCell>
        <mxCell id="9PrhW-YELXMRdit4gi3W-75" value="Редактирование записей" style="rounded=0;whiteSpace=wrap;html=1;" vertex="1" parent="1">
          <mxGeometry x="700" y="1067.5" width="120" height="60" as="geometry" />
        </mxCell>
        <mxCell id="9PrhW-YELXMRdit4gi3W-76" value="ok_brows_db" style="shape=cylinder3;whiteSpace=wrap;html=1;boundedLbl=1;backgroundOutline=1;size=15;" vertex="1" parent="1">
          <mxGeometry x="530" y="1105" width="130" height="70" as="geometry" />
        </mxCell>
        <mxCell id="9PrhW-YELXMRdit4gi3W-77" value="Ввод данных" style="html=1;strokeWidth=2;shape=manualInput;whiteSpace=wrap;rounded=1;size=26;arcSize=11;" vertex="1" parent="1">
          <mxGeometry x="530" y="1020" width="130" height="70" as="geometry" />
        </mxCell>
        <mxCell id="9PrhW-YELXMRdit4gi3W-78" style="edgeStyle=orthogonalEdgeStyle;rounded=0;orthogonalLoop=1;jettySize=auto;html=1;exitX=0;exitY=0.5;exitDx=0;exitDy=0;entryX=1;entryY=0.5;entryDx=0;entryDy=0;entryPerimeter=0;" edge="1" parent="1" source="9PrhW-YELXMRdit4gi3W-75" target="9PrhW-YELXMRdit4gi3W-76">
          <mxGeometry relative="1" as="geometry" />
        </mxCell>
        <mxCell id="9PrhW-YELXMRdit4gi3W-79" value="" style="group" vertex="1" connectable="0" parent="1">
          <mxGeometry x="865" y="1016" width="130" height="70" as="geometry" />
        </mxCell>
        <mxCell id="9PrhW-YELXMRdit4gi3W-80" value="" style="verticalLabelPosition=bottom;verticalAlign=top;html=1;shape=offPageConnector;rounded=0;size=0.5;rotation=90;" vertex="1" parent="9PrhW-YELXMRdit4gi3W-79">
          <mxGeometry x="30" y="-30" width="70" height="130" as="geometry" />
        </mxCell>
        <mxCell id="9PrhW-YELXMRdit4gi3W-81" value="Ответ пользователю" style="text;html=1;align=center;verticalAlign=middle;whiteSpace=wrap;rounded=0;" vertex="1" parent="9PrhW-YELXMRdit4gi3W-79">
          <mxGeometry x="60" y="20" width="60" height="30" as="geometry" />
        </mxCell>
        <mxCell id="9PrhW-YELXMRdit4gi3W-90" value="ok_brows_db" style="shape=cylinder3;whiteSpace=wrap;html=1;boundedLbl=1;backgroundOutline=1;size=15;" vertex="1" parent="1">
          <mxGeometry x="865" y="1105" width="130" height="70" as="geometry" />
        </mxCell>
        <mxCell id="9PrhW-YELXMRdit4gi3W-91" style="edgeStyle=orthogonalEdgeStyle;rounded=0;orthogonalLoop=1;jettySize=auto;html=1;exitX=1;exitY=0.5;exitDx=0;exitDy=0;entryX=0;entryY=0.5;entryDx=0;entryDy=0;entryPerimeter=0;" edge="1" parent="1" source="9PrhW-YELXMRdit4gi3W-75" target="9PrhW-YELXMRdit4gi3W-90">
          <mxGeometry relative="1" as="geometry" />
        </mxCell>
        <mxCell id="9PrhW-YELXMRdit4gi3W-92" style="edgeStyle=orthogonalEdgeStyle;rounded=0;orthogonalLoop=1;jettySize=auto;html=1;exitX=0;exitY=0.5;exitDx=0;exitDy=0;entryX=1;entryY=0.5;entryDx=0;entryDy=0;" edge="1" parent="1" source="9PrhW-YELXMRdit4gi3W-95" target="9PrhW-YELXMRdit4gi3W-97">
          <mxGeometry relative="1" as="geometry" />
        </mxCell>
        <mxCell id="9PrhW-YELXMRdit4gi3W-93" style="edgeStyle=orthogonalEdgeStyle;rounded=0;orthogonalLoop=1;jettySize=auto;html=1;exitX=1;exitY=0.5;exitDx=0;exitDy=0;entryX=0.5;entryY=1;entryDx=0;entryDy=0;" edge="1" parent="1" source="9PrhW-YELXMRdit4gi3W-95" target="9PrhW-YELXMRdit4gi3W-100">
          <mxGeometry relative="1" as="geometry" />
        </mxCell>
        <mxCell id="9PrhW-YELXMRdit4gi3W-94" style="edgeStyle=orthogonalEdgeStyle;rounded=0;orthogonalLoop=1;jettySize=auto;html=1;exitX=0.5;exitY=1;exitDx=0;exitDy=0;entryX=0.5;entryY=0;entryDx=0;entryDy=0;" edge="1" parent="1" source="9PrhW-YELXMRdit4gi3W-95" target="9PrhW-YELXMRdit4gi3W-107">
          <mxGeometry relative="1" as="geometry">
            <mxPoint x="760" y="1349.5" as="targetPoint" />
          </mxGeometry>
        </mxCell>
        <mxCell id="9PrhW-YELXMRdit4gi3W-95" value="Удаление записей" style="rounded=0;whiteSpace=wrap;html=1;" vertex="1" parent="1">
          <mxGeometry x="700" y="1241.5" width="120" height="60" as="geometry" />
        </mxCell>
        <mxCell id="9PrhW-YELXMRdit4gi3W-96" value="ok_brows_db" style="shape=cylinder3;whiteSpace=wrap;html=1;boundedLbl=1;backgroundOutline=1;size=15;" vertex="1" parent="1">
          <mxGeometry x="530" y="1279" width="130" height="70" as="geometry" />
        </mxCell>
        <mxCell id="9PrhW-YELXMRdit4gi3W-97" value="Ввод данных" style="html=1;strokeWidth=2;shape=manualInput;whiteSpace=wrap;rounded=1;size=26;arcSize=11;" vertex="1" parent="1">
          <mxGeometry x="530" y="1194" width="130" height="70" as="geometry" />
        </mxCell>
        <mxCell id="9PrhW-YELXMRdit4gi3W-98" style="edgeStyle=orthogonalEdgeStyle;rounded=0;orthogonalLoop=1;jettySize=auto;html=1;exitX=0;exitY=0.5;exitDx=0;exitDy=0;entryX=1;entryY=0.5;entryDx=0;entryDy=0;entryPerimeter=0;" edge="1" parent="1" source="9PrhW-YELXMRdit4gi3W-95" target="9PrhW-YELXMRdit4gi3W-96">
          <mxGeometry relative="1" as="geometry" />
        </mxCell>
        <mxCell id="9PrhW-YELXMRdit4gi3W-99" value="" style="group" vertex="1" connectable="0" parent="1">
          <mxGeometry x="865" y="1190" width="130" height="70" as="geometry" />
        </mxCell>
        <mxCell id="9PrhW-YELXMRdit4gi3W-100" value="" style="verticalLabelPosition=bottom;verticalAlign=top;html=1;shape=offPageConnector;rounded=0;size=0.5;rotation=90;" vertex="1" parent="9PrhW-YELXMRdit4gi3W-99">
          <mxGeometry x="30" y="-30" width="70" height="130" as="geometry" />
        </mxCell>
        <mxCell id="9PrhW-YELXMRdit4gi3W-101" value="Ответ пользователю" style="text;html=1;align=center;verticalAlign=middle;whiteSpace=wrap;rounded=0;" vertex="1" parent="9PrhW-YELXMRdit4gi3W-99">
          <mxGeometry x="60" y="20" width="60" height="30" as="geometry" />
        </mxCell>
        <mxCell id="9PrhW-YELXMRdit4gi3W-102" value="ok_brows_db" style="shape=cylinder3;whiteSpace=wrap;html=1;boundedLbl=1;backgroundOutline=1;size=15;" vertex="1" parent="1">
          <mxGeometry x="865" y="1279" width="130" height="70" as="geometry" />
        </mxCell>
        <mxCell id="9PrhW-YELXMRdit4gi3W-103" style="edgeStyle=orthogonalEdgeStyle;rounded=0;orthogonalLoop=1;jettySize=auto;html=1;exitX=1;exitY=0.5;exitDx=0;exitDy=0;entryX=0;entryY=0.5;entryDx=0;entryDy=0;entryPerimeter=0;" edge="1" parent="1" source="9PrhW-YELXMRdit4gi3W-95" target="9PrhW-YELXMRdit4gi3W-102">
          <mxGeometry relative="1" as="geometry" />
        </mxCell>
        <mxCell id="9PrhW-YELXMRdit4gi3W-104" style="edgeStyle=orthogonalEdgeStyle;rounded=0;orthogonalLoop=1;jettySize=auto;html=1;exitX=0;exitY=0.5;exitDx=0;exitDy=0;entryX=1;entryY=0.5;entryDx=0;entryDy=0;" edge="1" parent="1" source="9PrhW-YELXMRdit4gi3W-107" target="9PrhW-YELXMRdit4gi3W-109">
          <mxGeometry relative="1" as="geometry" />
        </mxCell>
        <mxCell id="9PrhW-YELXMRdit4gi3W-105" style="edgeStyle=orthogonalEdgeStyle;rounded=0;orthogonalLoop=1;jettySize=auto;html=1;exitX=1;exitY=0.5;exitDx=0;exitDy=0;entryX=0.5;entryY=1;entryDx=0;entryDy=0;" edge="1" parent="1" source="9PrhW-YELXMRdit4gi3W-107" target="9PrhW-YELXMRdit4gi3W-112">
          <mxGeometry relative="1" as="geometry" />
        </mxCell>
        <mxCell id="9PrhW-YELXMRdit4gi3W-106" style="edgeStyle=orthogonalEdgeStyle;rounded=0;orthogonalLoop=1;jettySize=auto;html=1;exitX=0.5;exitY=1;exitDx=0;exitDy=0;entryX=0.5;entryY=0;entryDx=0;entryDy=0;" edge="1" parent="1" source="9PrhW-YELXMRdit4gi3W-107" target="9PrhW-YELXMRdit4gi3W-119">
          <mxGeometry relative="1" as="geometry">
            <mxPoint x="758" y="1520" as="targetPoint" />
          </mxGeometry>
        </mxCell>
        <mxCell id="9PrhW-YELXMRdit4gi3W-107" value="Подтверждение записи" style="rounded=0;whiteSpace=wrap;html=1;" vertex="1" parent="1">
          <mxGeometry x="697.5" y="1411.5" width="120" height="60" as="geometry" />
        </mxCell>
        <mxCell id="9PrhW-YELXMRdit4gi3W-108" value="ok_brows_db" style="shape=cylinder3;whiteSpace=wrap;html=1;boundedLbl=1;backgroundOutline=1;size=15;" vertex="1" parent="1">
          <mxGeometry x="527.5" y="1449" width="130" height="70" as="geometry" />
        </mxCell>
        <mxCell id="9PrhW-YELXMRdit4gi3W-109" value="Ввод данных" style="html=1;strokeWidth=2;shape=manualInput;whiteSpace=wrap;rounded=1;size=26;arcSize=11;" vertex="1" parent="1">
          <mxGeometry x="527.5" y="1364" width="130" height="70" as="geometry" />
        </mxCell>
        <mxCell id="9PrhW-YELXMRdit4gi3W-110" style="edgeStyle=orthogonalEdgeStyle;rounded=0;orthogonalLoop=1;jettySize=auto;html=1;exitX=0;exitY=0.5;exitDx=0;exitDy=0;entryX=1;entryY=0.5;entryDx=0;entryDy=0;entryPerimeter=0;" edge="1" parent="1" source="9PrhW-YELXMRdit4gi3W-107" target="9PrhW-YELXMRdit4gi3W-108">
          <mxGeometry relative="1" as="geometry" />
        </mxCell>
        <mxCell id="9PrhW-YELXMRdit4gi3W-111" value="" style="group" vertex="1" connectable="0" parent="1">
          <mxGeometry x="862.5" y="1360" width="130" height="70" as="geometry" />
        </mxCell>
        <mxCell id="9PrhW-YELXMRdit4gi3W-112" value="" style="verticalLabelPosition=bottom;verticalAlign=top;html=1;shape=offPageConnector;rounded=0;size=0.5;rotation=90;" vertex="1" parent="9PrhW-YELXMRdit4gi3W-111">
          <mxGeometry x="30" y="-30" width="70" height="130" as="geometry" />
        </mxCell>
        <mxCell id="9PrhW-YELXMRdit4gi3W-113" value="Ответ пользователю" style="text;html=1;align=center;verticalAlign=middle;whiteSpace=wrap;rounded=0;" vertex="1" parent="9PrhW-YELXMRdit4gi3W-111">
          <mxGeometry x="60" y="20" width="60" height="30" as="geometry" />
        </mxCell>
        <mxCell id="9PrhW-YELXMRdit4gi3W-114" value="ok_brows_db" style="shape=cylinder3;whiteSpace=wrap;html=1;boundedLbl=1;backgroundOutline=1;size=15;" vertex="1" parent="1">
          <mxGeometry x="862.5" y="1449" width="130" height="70" as="geometry" />
        </mxCell>
        <mxCell id="9PrhW-YELXMRdit4gi3W-115" style="edgeStyle=orthogonalEdgeStyle;rounded=0;orthogonalLoop=1;jettySize=auto;html=1;exitX=1;exitY=0.5;exitDx=0;exitDy=0;entryX=0;entryY=0.5;entryDx=0;entryDy=0;entryPerimeter=0;" edge="1" parent="1" source="9PrhW-YELXMRdit4gi3W-107" target="9PrhW-YELXMRdit4gi3W-114">
          <mxGeometry relative="1" as="geometry" />
        </mxCell>
        <mxCell id="9PrhW-YELXMRdit4gi3W-116" style="edgeStyle=orthogonalEdgeStyle;rounded=0;orthogonalLoop=1;jettySize=auto;html=1;exitX=0;exitY=0.5;exitDx=0;exitDy=0;entryX=1;entryY=0.5;entryDx=0;entryDy=0;" edge="1" parent="1" source="9PrhW-YELXMRdit4gi3W-119" target="9PrhW-YELXMRdit4gi3W-121">
          <mxGeometry relative="1" as="geometry" />
        </mxCell>
        <mxCell id="9PrhW-YELXMRdit4gi3W-117" style="edgeStyle=orthogonalEdgeStyle;rounded=0;orthogonalLoop=1;jettySize=auto;html=1;exitX=1;exitY=0.5;exitDx=0;exitDy=0;entryX=0.5;entryY=1;entryDx=0;entryDy=0;" edge="1" parent="1" source="9PrhW-YELXMRdit4gi3W-119" target="9PrhW-YELXMRdit4gi3W-124">
          <mxGeometry relative="1" as="geometry" />
        </mxCell>
        <mxCell id="9PrhW-YELXMRdit4gi3W-118" style="edgeStyle=orthogonalEdgeStyle;rounded=0;orthogonalLoop=1;jettySize=auto;html=1;exitX=0.5;exitY=1;exitDx=0;exitDy=0;entryX=0.5;entryY=0;entryDx=0;entryDy=0;" edge="1" parent="1" source="9PrhW-YELXMRdit4gi3W-119" target="9PrhW-YELXMRdit4gi3W-131">
          <mxGeometry relative="1" as="geometry">
            <mxPoint x="757.5" y="1699.5" as="targetPoint" />
          </mxGeometry>
        </mxCell>
        <mxCell id="9PrhW-YELXMRdit4gi3W-119" value="Добавление услуг" style="rounded=0;whiteSpace=wrap;html=1;" vertex="1" parent="1">
          <mxGeometry x="697.5" y="1591.5" width="120" height="60" as="geometry" />
        </mxCell>
        <mxCell id="9PrhW-YELXMRdit4gi3W-120" value="ok_brows_db" style="shape=cylinder3;whiteSpace=wrap;html=1;boundedLbl=1;backgroundOutline=1;size=15;" vertex="1" parent="1">
          <mxGeometry x="527.5" y="1629" width="130" height="70" as="geometry" />
        </mxCell>
        <mxCell id="9PrhW-YELXMRdit4gi3W-121" value="Ввод данных" style="html=1;strokeWidth=2;shape=manualInput;whiteSpace=wrap;rounded=1;size=26;arcSize=11;" vertex="1" parent="1">
          <mxGeometry x="527.5" y="1544" width="130" height="70" as="geometry" />
        </mxCell>
        <mxCell id="9PrhW-YELXMRdit4gi3W-122" style="edgeStyle=orthogonalEdgeStyle;rounded=0;orthogonalLoop=1;jettySize=auto;html=1;exitX=0;exitY=0.5;exitDx=0;exitDy=0;entryX=1;entryY=0.5;entryDx=0;entryDy=0;entryPerimeter=0;" edge="1" parent="1" source="9PrhW-YELXMRdit4gi3W-119" target="9PrhW-YELXMRdit4gi3W-120">
          <mxGeometry relative="1" as="geometry" />
        </mxCell>
        <mxCell id="9PrhW-YELXMRdit4gi3W-123" value="" style="group" vertex="1" connectable="0" parent="1">
          <mxGeometry x="862.5" y="1540" width="130" height="70" as="geometry" />
        </mxCell>
        <mxCell id="9PrhW-YELXMRdit4gi3W-124" value="" style="verticalLabelPosition=bottom;verticalAlign=top;html=1;shape=offPageConnector;rounded=0;size=0.5;rotation=90;" vertex="1" parent="9PrhW-YELXMRdit4gi3W-123">
          <mxGeometry x="30" y="-30" width="70" height="130" as="geometry" />
        </mxCell>
        <mxCell id="9PrhW-YELXMRdit4gi3W-125" value="Ответ пользователю" style="text;html=1;align=center;verticalAlign=middle;whiteSpace=wrap;rounded=0;" vertex="1" parent="9PrhW-YELXMRdit4gi3W-123">
          <mxGeometry x="60" y="20" width="60" height="30" as="geometry" />
        </mxCell>
        <mxCell id="9PrhW-YELXMRdit4gi3W-126" value="ok_brows_db" style="shape=cylinder3;whiteSpace=wrap;html=1;boundedLbl=1;backgroundOutline=1;size=15;" vertex="1" parent="1">
          <mxGeometry x="862.5" y="1629" width="130" height="70" as="geometry" />
        </mxCell>
        <mxCell id="9PrhW-YELXMRdit4gi3W-127" style="edgeStyle=orthogonalEdgeStyle;rounded=0;orthogonalLoop=1;jettySize=auto;html=1;exitX=1;exitY=0.5;exitDx=0;exitDy=0;entryX=0;entryY=0.5;entryDx=0;entryDy=0;entryPerimeter=0;" edge="1" parent="1" source="9PrhW-YELXMRdit4gi3W-119" target="9PrhW-YELXMRdit4gi3W-126">
          <mxGeometry relative="1" as="geometry" />
        </mxCell>
        <mxCell id="9PrhW-YELXMRdit4gi3W-128" style="edgeStyle=orthogonalEdgeStyle;rounded=0;orthogonalLoop=1;jettySize=auto;html=1;exitX=0;exitY=0.5;exitDx=0;exitDy=0;entryX=1;entryY=0.5;entryDx=0;entryDy=0;" edge="1" parent="1" source="9PrhW-YELXMRdit4gi3W-131" target="9PrhW-YELXMRdit4gi3W-133">
          <mxGeometry relative="1" as="geometry" />
        </mxCell>
        <mxCell id="9PrhW-YELXMRdit4gi3W-129" style="edgeStyle=orthogonalEdgeStyle;rounded=0;orthogonalLoop=1;jettySize=auto;html=1;exitX=1;exitY=0.5;exitDx=0;exitDy=0;entryX=0.5;entryY=1;entryDx=0;entryDy=0;" edge="1" parent="1" source="9PrhW-YELXMRdit4gi3W-131" target="9PrhW-YELXMRdit4gi3W-136">
          <mxGeometry relative="1" as="geometry" />
        </mxCell>
        <mxCell id="9PrhW-YELXMRdit4gi3W-130" style="edgeStyle=orthogonalEdgeStyle;rounded=0;orthogonalLoop=1;jettySize=auto;html=1;exitX=0.5;exitY=1;exitDx=0;exitDy=0;entryX=0.5;entryY=0;entryDx=0;entryDy=0;" edge="1" parent="1" source="9PrhW-YELXMRdit4gi3W-131" target="9PrhW-YELXMRdit4gi3W-143">
          <mxGeometry relative="1" as="geometry">
            <mxPoint x="755" y="1869.5" as="targetPoint" />
          </mxGeometry>
        </mxCell>
        <mxCell id="9PrhW-YELXMRdit4gi3W-131" value="Редактирование услуг" style="rounded=0;whiteSpace=wrap;html=1;" vertex="1" parent="1">
          <mxGeometry x="695" y="1761.5" width="120" height="60" as="geometry" />
        </mxCell>
        <mxCell id="9PrhW-YELXMRdit4gi3W-132" value="ok_brows_db" style="shape=cylinder3;whiteSpace=wrap;html=1;boundedLbl=1;backgroundOutline=1;size=15;" vertex="1" parent="1">
          <mxGeometry x="525" y="1799" width="130" height="70" as="geometry" />
        </mxCell>
        <mxCell id="9PrhW-YELXMRdit4gi3W-133" value="Ввод данных" style="html=1;strokeWidth=2;shape=manualInput;whiteSpace=wrap;rounded=1;size=26;arcSize=11;" vertex="1" parent="1">
          <mxGeometry x="525" y="1714" width="130" height="70" as="geometry" />
        </mxCell>
        <mxCell id="9PrhW-YELXMRdit4gi3W-134" style="edgeStyle=orthogonalEdgeStyle;rounded=0;orthogonalLoop=1;jettySize=auto;html=1;exitX=0;exitY=0.5;exitDx=0;exitDy=0;entryX=1;entryY=0.5;entryDx=0;entryDy=0;entryPerimeter=0;" edge="1" parent="1" source="9PrhW-YELXMRdit4gi3W-131" target="9PrhW-YELXMRdit4gi3W-132">
          <mxGeometry relative="1" as="geometry" />
        </mxCell>
        <mxCell id="9PrhW-YELXMRdit4gi3W-135" value="" style="group" vertex="1" connectable="0" parent="1">
          <mxGeometry x="860" y="1710" width="130" height="70" as="geometry" />
        </mxCell>
        <mxCell id="9PrhW-YELXMRdit4gi3W-136" value="" style="verticalLabelPosition=bottom;verticalAlign=top;html=1;shape=offPageConnector;rounded=0;size=0.5;rotation=90;" vertex="1" parent="9PrhW-YELXMRdit4gi3W-135">
          <mxGeometry x="30" y="-30" width="70" height="130" as="geometry" />
        </mxCell>
        <mxCell id="9PrhW-YELXMRdit4gi3W-137" value="Ответ пользователю" style="text;html=1;align=center;verticalAlign=middle;whiteSpace=wrap;rounded=0;" vertex="1" parent="9PrhW-YELXMRdit4gi3W-135">
          <mxGeometry x="60" y="20" width="60" height="30" as="geometry" />
        </mxCell>
        <mxCell id="9PrhW-YELXMRdit4gi3W-138" value="ok_brows_db" style="shape=cylinder3;whiteSpace=wrap;html=1;boundedLbl=1;backgroundOutline=1;size=15;" vertex="1" parent="1">
          <mxGeometry x="860" y="1799" width="130" height="70" as="geometry" />
        </mxCell>
        <mxCell id="9PrhW-YELXMRdit4gi3W-139" style="edgeStyle=orthogonalEdgeStyle;rounded=0;orthogonalLoop=1;jettySize=auto;html=1;exitX=1;exitY=0.5;exitDx=0;exitDy=0;entryX=0;entryY=0.5;entryDx=0;entryDy=0;entryPerimeter=0;" edge="1" parent="1" source="9PrhW-YELXMRdit4gi3W-131" target="9PrhW-YELXMRdit4gi3W-138">
          <mxGeometry relative="1" as="geometry" />
        </mxCell>
        <mxCell id="9PrhW-YELXMRdit4gi3W-140" style="edgeStyle=orthogonalEdgeStyle;rounded=0;orthogonalLoop=1;jettySize=auto;html=1;exitX=0;exitY=0.5;exitDx=0;exitDy=0;entryX=1;entryY=0.5;entryDx=0;entryDy=0;" edge="1" parent="1" source="9PrhW-YELXMRdit4gi3W-143" target="9PrhW-YELXMRdit4gi3W-145">
          <mxGeometry relative="1" as="geometry" />
        </mxCell>
        <mxCell id="9PrhW-YELXMRdit4gi3W-141" style="edgeStyle=orthogonalEdgeStyle;rounded=0;orthogonalLoop=1;jettySize=auto;html=1;exitX=1;exitY=0.5;exitDx=0;exitDy=0;entryX=0.5;entryY=1;entryDx=0;entryDy=0;" edge="1" parent="1" source="9PrhW-YELXMRdit4gi3W-143" target="9PrhW-YELXMRdit4gi3W-148">
          <mxGeometry relative="1" as="geometry" />
        </mxCell>
        <mxCell id="9PrhW-YELXMRdit4gi3W-142" style="edgeStyle=orthogonalEdgeStyle;rounded=0;orthogonalLoop=1;jettySize=auto;html=1;exitX=0.5;exitY=1;exitDx=0;exitDy=0;entryX=0.5;entryY=0;entryDx=0;entryDy=0;" edge="1" parent="1" source="9PrhW-YELXMRdit4gi3W-143" target="9PrhW-YELXMRdit4gi3W-155">
          <mxGeometry relative="1" as="geometry">
            <mxPoint x="752.5" y="2039.5" as="targetPoint" />
          </mxGeometry>
        </mxCell>
        <mxCell id="9PrhW-YELXMRdit4gi3W-143" value="Удаление услуг" style="rounded=0;whiteSpace=wrap;html=1;" vertex="1" parent="1">
          <mxGeometry x="692.5" y="1931.5" width="120" height="60" as="geometry" />
        </mxCell>
        <mxCell id="9PrhW-YELXMRdit4gi3W-144" value="ok_brows_db" style="shape=cylinder3;whiteSpace=wrap;html=1;boundedLbl=1;backgroundOutline=1;size=15;" vertex="1" parent="1">
          <mxGeometry x="522.5" y="1969" width="130" height="70" as="geometry" />
        </mxCell>
        <mxCell id="9PrhW-YELXMRdit4gi3W-145" value="Ввод данных" style="html=1;strokeWidth=2;shape=manualInput;whiteSpace=wrap;rounded=1;size=26;arcSize=11;" vertex="1" parent="1">
          <mxGeometry x="522.5" y="1884" width="130" height="70" as="geometry" />
        </mxCell>
        <mxCell id="9PrhW-YELXMRdit4gi3W-146" style="edgeStyle=orthogonalEdgeStyle;rounded=0;orthogonalLoop=1;jettySize=auto;html=1;exitX=0;exitY=0.5;exitDx=0;exitDy=0;entryX=1;entryY=0.5;entryDx=0;entryDy=0;entryPerimeter=0;" edge="1" parent="1" source="9PrhW-YELXMRdit4gi3W-143" target="9PrhW-YELXMRdit4gi3W-144">
          <mxGeometry relative="1" as="geometry" />
        </mxCell>
        <mxCell id="9PrhW-YELXMRdit4gi3W-147" value="" style="group" vertex="1" connectable="0" parent="1">
          <mxGeometry x="857.5" y="1880" width="130" height="70" as="geometry" />
        </mxCell>
        <mxCell id="9PrhW-YELXMRdit4gi3W-148" value="" style="verticalLabelPosition=bottom;verticalAlign=top;html=1;shape=offPageConnector;rounded=0;size=0.5;rotation=90;" vertex="1" parent="9PrhW-YELXMRdit4gi3W-147">
          <mxGeometry x="30" y="-30" width="70" height="130" as="geometry" />
        </mxCell>
        <mxCell id="9PrhW-YELXMRdit4gi3W-149" value="Ответ пользователю" style="text;html=1;align=center;verticalAlign=middle;whiteSpace=wrap;rounded=0;" vertex="1" parent="9PrhW-YELXMRdit4gi3W-147">
          <mxGeometry x="60" y="20" width="60" height="30" as="geometry" />
        </mxCell>
        <mxCell id="9PrhW-YELXMRdit4gi3W-150" value="ok_brows_db" style="shape=cylinder3;whiteSpace=wrap;html=1;boundedLbl=1;backgroundOutline=1;size=15;" vertex="1" parent="1">
          <mxGeometry x="857.5" y="1969" width="130" height="70" as="geometry" />
        </mxCell>
        <mxCell id="9PrhW-YELXMRdit4gi3W-151" style="edgeStyle=orthogonalEdgeStyle;rounded=0;orthogonalLoop=1;jettySize=auto;html=1;exitX=1;exitY=0.5;exitDx=0;exitDy=0;entryX=0;entryY=0.5;entryDx=0;entryDy=0;entryPerimeter=0;" edge="1" parent="1" source="9PrhW-YELXMRdit4gi3W-143" target="9PrhW-YELXMRdit4gi3W-150">
          <mxGeometry relative="1" as="geometry" />
        </mxCell>
        <mxCell id="9PrhW-YELXMRdit4gi3W-152" style="edgeStyle=orthogonalEdgeStyle;rounded=0;orthogonalLoop=1;jettySize=auto;html=1;exitX=0;exitY=0.5;exitDx=0;exitDy=0;entryX=1;entryY=0.5;entryDx=0;entryDy=0;" edge="1" parent="1" source="9PrhW-YELXMRdit4gi3W-155" target="9PrhW-YELXMRdit4gi3W-157">
          <mxGeometry relative="1" as="geometry" />
        </mxCell>
        <mxCell id="9PrhW-YELXMRdit4gi3W-153" style="edgeStyle=orthogonalEdgeStyle;rounded=0;orthogonalLoop=1;jettySize=auto;html=1;exitX=1;exitY=0.5;exitDx=0;exitDy=0;entryX=0.5;entryY=1;entryDx=0;entryDy=0;" edge="1" parent="1" source="9PrhW-YELXMRdit4gi3W-155" target="9PrhW-YELXMRdit4gi3W-160">
          <mxGeometry relative="1" as="geometry" />
        </mxCell>
        <mxCell id="9PrhW-YELXMRdit4gi3W-154" style="edgeStyle=orthogonalEdgeStyle;rounded=0;orthogonalLoop=1;jettySize=auto;html=1;exitX=0.5;exitY=1;exitDx=0;exitDy=0;entryX=0.5;entryY=0;entryDx=0;entryDy=0;" edge="1" parent="1" source="9PrhW-YELXMRdit4gi3W-155" target="9PrhW-YELXMRdit4gi3W-167">
          <mxGeometry relative="1" as="geometry">
            <mxPoint x="755" y="2209.5" as="targetPoint" />
          </mxGeometry>
        </mxCell>
        <mxCell id="9PrhW-YELXMRdit4gi3W-155" value="Добавление новости" style="rounded=0;whiteSpace=wrap;html=1;" vertex="1" parent="1">
          <mxGeometry x="695" y="2101.5" width="120" height="60" as="geometry" />
        </mxCell>
        <mxCell id="9PrhW-YELXMRdit4gi3W-156" value="ok_brows_db" style="shape=cylinder3;whiteSpace=wrap;html=1;boundedLbl=1;backgroundOutline=1;size=15;" vertex="1" parent="1">
          <mxGeometry x="525" y="2139" width="130" height="70" as="geometry" />
        </mxCell>
        <mxCell id="9PrhW-YELXMRdit4gi3W-157" value="Ввод данных" style="html=1;strokeWidth=2;shape=manualInput;whiteSpace=wrap;rounded=1;size=26;arcSize=11;" vertex="1" parent="1">
          <mxGeometry x="525" y="2054" width="130" height="70" as="geometry" />
        </mxCell>
        <mxCell id="9PrhW-YELXMRdit4gi3W-158" style="edgeStyle=orthogonalEdgeStyle;rounded=0;orthogonalLoop=1;jettySize=auto;html=1;exitX=0;exitY=0.5;exitDx=0;exitDy=0;entryX=1;entryY=0.5;entryDx=0;entryDy=0;entryPerimeter=0;" edge="1" parent="1" source="9PrhW-YELXMRdit4gi3W-155" target="9PrhW-YELXMRdit4gi3W-156">
          <mxGeometry relative="1" as="geometry" />
        </mxCell>
        <mxCell id="9PrhW-YELXMRdit4gi3W-159" value="" style="group" vertex="1" connectable="0" parent="1">
          <mxGeometry x="860" y="2050" width="130" height="70" as="geometry" />
        </mxCell>
        <mxCell id="9PrhW-YELXMRdit4gi3W-160" value="" style="verticalLabelPosition=bottom;verticalAlign=top;html=1;shape=offPageConnector;rounded=0;size=0.5;rotation=90;" vertex="1" parent="9PrhW-YELXMRdit4gi3W-159">
          <mxGeometry x="30" y="-30" width="70" height="130" as="geometry" />
        </mxCell>
        <mxCell id="9PrhW-YELXMRdit4gi3W-161" value="Ответ пользователю" style="text;html=1;align=center;verticalAlign=middle;whiteSpace=wrap;rounded=0;" vertex="1" parent="9PrhW-YELXMRdit4gi3W-159">
          <mxGeometry x="60" y="20" width="60" height="30" as="geometry" />
        </mxCell>
        <mxCell id="9PrhW-YELXMRdit4gi3W-162" value="ok_brows_db" style="shape=cylinder3;whiteSpace=wrap;html=1;boundedLbl=1;backgroundOutline=1;size=15;" vertex="1" parent="1">
          <mxGeometry x="860" y="2139" width="130" height="70" as="geometry" />
        </mxCell>
        <mxCell id="9PrhW-YELXMRdit4gi3W-163" style="edgeStyle=orthogonalEdgeStyle;rounded=0;orthogonalLoop=1;jettySize=auto;html=1;exitX=1;exitY=0.5;exitDx=0;exitDy=0;entryX=0;entryY=0.5;entryDx=0;entryDy=0;entryPerimeter=0;" edge="1" parent="1" source="9PrhW-YELXMRdit4gi3W-155" target="9PrhW-YELXMRdit4gi3W-162">
          <mxGeometry relative="1" as="geometry" />
        </mxCell>
        <mxCell id="9PrhW-YELXMRdit4gi3W-164" style="edgeStyle=orthogonalEdgeStyle;rounded=0;orthogonalLoop=1;jettySize=auto;html=1;exitX=0;exitY=0.5;exitDx=0;exitDy=0;entryX=1;entryY=0.5;entryDx=0;entryDy=0;" edge="1" parent="1" source="9PrhW-YELXMRdit4gi3W-167" target="9PrhW-YELXMRdit4gi3W-169">
          <mxGeometry relative="1" as="geometry" />
        </mxCell>
        <mxCell id="9PrhW-YELXMRdit4gi3W-165" style="edgeStyle=orthogonalEdgeStyle;rounded=0;orthogonalLoop=1;jettySize=auto;html=1;exitX=1;exitY=0.5;exitDx=0;exitDy=0;entryX=0.5;entryY=1;entryDx=0;entryDy=0;" edge="1" parent="1" source="9PrhW-YELXMRdit4gi3W-167" target="9PrhW-YELXMRdit4gi3W-172">
          <mxGeometry relative="1" as="geometry" />
        </mxCell>
        <mxCell id="9PrhW-YELXMRdit4gi3W-166" style="edgeStyle=orthogonalEdgeStyle;rounded=0;orthogonalLoop=1;jettySize=auto;html=1;exitX=0.5;exitY=1;exitDx=0;exitDy=0;entryX=0.5;entryY=0;entryDx=0;entryDy=0;" edge="1" parent="1" source="9PrhW-YELXMRdit4gi3W-167" target="9PrhW-YELXMRdit4gi3W-179">
          <mxGeometry relative="1" as="geometry">
            <mxPoint x="752.5" y="2379.5" as="targetPoint" />
          </mxGeometry>
        </mxCell>
        <mxCell id="9PrhW-YELXMRdit4gi3W-167" value="редактирвоание новости" style="rounded=0;whiteSpace=wrap;html=1;" vertex="1" parent="1">
          <mxGeometry x="692.5" y="2271.5" width="120" height="60" as="geometry" />
        </mxCell>
        <mxCell id="9PrhW-YELXMRdit4gi3W-168" value="ok_brows_db" style="shape=cylinder3;whiteSpace=wrap;html=1;boundedLbl=1;backgroundOutline=1;size=15;" vertex="1" parent="1">
          <mxGeometry x="522.5" y="2309" width="130" height="70" as="geometry" />
        </mxCell>
        <mxCell id="9PrhW-YELXMRdit4gi3W-169" value="Ввод данных" style="html=1;strokeWidth=2;shape=manualInput;whiteSpace=wrap;rounded=1;size=26;arcSize=11;" vertex="1" parent="1">
          <mxGeometry x="522.5" y="2224" width="130" height="70" as="geometry" />
        </mxCell>
        <mxCell id="9PrhW-YELXMRdit4gi3W-170" style="edgeStyle=orthogonalEdgeStyle;rounded=0;orthogonalLoop=1;jettySize=auto;html=1;exitX=0;exitY=0.5;exitDx=0;exitDy=0;entryX=1;entryY=0.5;entryDx=0;entryDy=0;entryPerimeter=0;" edge="1" parent="1" source="9PrhW-YELXMRdit4gi3W-167" target="9PrhW-YELXMRdit4gi3W-168">
          <mxGeometry relative="1" as="geometry" />
        </mxCell>
        <mxCell id="9PrhW-YELXMRdit4gi3W-171" value="" style="group" vertex="1" connectable="0" parent="1">
          <mxGeometry x="857.5" y="2220" width="130" height="70" as="geometry" />
        </mxCell>
        <mxCell id="9PrhW-YELXMRdit4gi3W-172" value="" style="verticalLabelPosition=bottom;verticalAlign=top;html=1;shape=offPageConnector;rounded=0;size=0.5;rotation=90;" vertex="1" parent="9PrhW-YELXMRdit4gi3W-171">
          <mxGeometry x="30" y="-30" width="70" height="130" as="geometry" />
        </mxCell>
        <mxCell id="9PrhW-YELXMRdit4gi3W-173" value="Ответ пользователю" style="text;html=1;align=center;verticalAlign=middle;whiteSpace=wrap;rounded=0;" vertex="1" parent="9PrhW-YELXMRdit4gi3W-171">
          <mxGeometry x="60" y="20" width="60" height="30" as="geometry" />
        </mxCell>
        <mxCell id="9PrhW-YELXMRdit4gi3W-174" value="ok_brows_db" style="shape=cylinder3;whiteSpace=wrap;html=1;boundedLbl=1;backgroundOutline=1;size=15;" vertex="1" parent="1">
          <mxGeometry x="857.5" y="2309" width="130" height="70" as="geometry" />
        </mxCell>
        <mxCell id="9PrhW-YELXMRdit4gi3W-175" style="edgeStyle=orthogonalEdgeStyle;rounded=0;orthogonalLoop=1;jettySize=auto;html=1;exitX=1;exitY=0.5;exitDx=0;exitDy=0;entryX=0;entryY=0.5;entryDx=0;entryDy=0;entryPerimeter=0;" edge="1" parent="1" source="9PrhW-YELXMRdit4gi3W-167" target="9PrhW-YELXMRdit4gi3W-174">
          <mxGeometry relative="1" as="geometry" />
        </mxCell>
        <mxCell id="9PrhW-YELXMRdit4gi3W-176" style="edgeStyle=orthogonalEdgeStyle;rounded=0;orthogonalLoop=1;jettySize=auto;html=1;exitX=0;exitY=0.5;exitDx=0;exitDy=0;entryX=1;entryY=0.5;entryDx=0;entryDy=0;" edge="1" parent="1" source="9PrhW-YELXMRdit4gi3W-179" target="9PrhW-YELXMRdit4gi3W-181">
          <mxGeometry relative="1" as="geometry" />
        </mxCell>
        <mxCell id="9PrhW-YELXMRdit4gi3W-177" style="edgeStyle=orthogonalEdgeStyle;rounded=0;orthogonalLoop=1;jettySize=auto;html=1;exitX=1;exitY=0.5;exitDx=0;exitDy=0;entryX=0.5;entryY=1;entryDx=0;entryDy=0;" edge="1" parent="1" source="9PrhW-YELXMRdit4gi3W-179" target="9PrhW-YELXMRdit4gi3W-184">
          <mxGeometry relative="1" as="geometry" />
        </mxCell>
        <mxCell id="9PrhW-YELXMRdit4gi3W-178" style="edgeStyle=orthogonalEdgeStyle;rounded=0;orthogonalLoop=1;jettySize=auto;html=1;exitX=0.5;exitY=1;exitDx=0;exitDy=0;entryX=0.5;entryY=0;entryDx=0;entryDy=0;" edge="1" parent="1" source="9PrhW-YELXMRdit4gi3W-179" target="9PrhW-YELXMRdit4gi3W-191">
          <mxGeometry relative="1" as="geometry">
            <mxPoint x="750" y="2549.5" as="targetPoint" />
          </mxGeometry>
        </mxCell>
        <mxCell id="9PrhW-YELXMRdit4gi3W-179" value="Удаление новости" style="rounded=0;whiteSpace=wrap;html=1;" vertex="1" parent="1">
          <mxGeometry x="690" y="2441.5" width="120" height="60" as="geometry" />
        </mxCell>
        <mxCell id="9PrhW-YELXMRdit4gi3W-180" value="ok_brows_db" style="shape=cylinder3;whiteSpace=wrap;html=1;boundedLbl=1;backgroundOutline=1;size=15;" vertex="1" parent="1">
          <mxGeometry x="520" y="2479" width="130" height="70" as="geometry" />
        </mxCell>
        <mxCell id="9PrhW-YELXMRdit4gi3W-181" value="Ввод данных" style="html=1;strokeWidth=2;shape=manualInput;whiteSpace=wrap;rounded=1;size=26;arcSize=11;" vertex="1" parent="1">
          <mxGeometry x="520" y="2394" width="130" height="70" as="geometry" />
        </mxCell>
        <mxCell id="9PrhW-YELXMRdit4gi3W-182" style="edgeStyle=orthogonalEdgeStyle;rounded=0;orthogonalLoop=1;jettySize=auto;html=1;exitX=0;exitY=0.5;exitDx=0;exitDy=0;entryX=1;entryY=0.5;entryDx=0;entryDy=0;entryPerimeter=0;" edge="1" parent="1" source="9PrhW-YELXMRdit4gi3W-179" target="9PrhW-YELXMRdit4gi3W-180">
          <mxGeometry relative="1" as="geometry" />
        </mxCell>
        <mxCell id="9PrhW-YELXMRdit4gi3W-183" value="" style="group" vertex="1" connectable="0" parent="1">
          <mxGeometry x="855" y="2390" width="130" height="70" as="geometry" />
        </mxCell>
        <mxCell id="9PrhW-YELXMRdit4gi3W-184" value="" style="verticalLabelPosition=bottom;verticalAlign=top;html=1;shape=offPageConnector;rounded=0;size=0.5;rotation=90;" vertex="1" parent="9PrhW-YELXMRdit4gi3W-183">
          <mxGeometry x="30" y="-30" width="70" height="130" as="geometry" />
        </mxCell>
        <mxCell id="9PrhW-YELXMRdit4gi3W-185" value="Ответ пользователю" style="text;html=1;align=center;verticalAlign=middle;whiteSpace=wrap;rounded=0;" vertex="1" parent="9PrhW-YELXMRdit4gi3W-183">
          <mxGeometry x="60" y="20" width="60" height="30" as="geometry" />
        </mxCell>
        <mxCell id="9PrhW-YELXMRdit4gi3W-186" value="ok_brows_db" style="shape=cylinder3;whiteSpace=wrap;html=1;boundedLbl=1;backgroundOutline=1;size=15;" vertex="1" parent="1">
          <mxGeometry x="855" y="2479" width="130" height="70" as="geometry" />
        </mxCell>
        <mxCell id="9PrhW-YELXMRdit4gi3W-187" style="edgeStyle=orthogonalEdgeStyle;rounded=0;orthogonalLoop=1;jettySize=auto;html=1;exitX=1;exitY=0.5;exitDx=0;exitDy=0;entryX=0;entryY=0.5;entryDx=0;entryDy=0;entryPerimeter=0;" edge="1" parent="1" source="9PrhW-YELXMRdit4gi3W-179" target="9PrhW-YELXMRdit4gi3W-186">
          <mxGeometry relative="1" as="geometry" />
        </mxCell>
        <mxCell id="9PrhW-YELXMRdit4gi3W-188" style="edgeStyle=orthogonalEdgeStyle;rounded=0;orthogonalLoop=1;jettySize=auto;html=1;exitX=0;exitY=0.5;exitDx=0;exitDy=0;entryX=1;entryY=0.5;entryDx=0;entryDy=0;" edge="1" parent="1" source="9PrhW-YELXMRdit4gi3W-191" target="9PrhW-YELXMRdit4gi3W-193">
          <mxGeometry relative="1" as="geometry" />
        </mxCell>
        <mxCell id="9PrhW-YELXMRdit4gi3W-189" style="edgeStyle=orthogonalEdgeStyle;rounded=0;orthogonalLoop=1;jettySize=auto;html=1;exitX=1;exitY=0.5;exitDx=0;exitDy=0;entryX=0.5;entryY=1;entryDx=0;entryDy=0;" edge="1" parent="1" source="9PrhW-YELXMRdit4gi3W-191" target="9PrhW-YELXMRdit4gi3W-196">
          <mxGeometry relative="1" as="geometry" />
        </mxCell>
        <mxCell id="9PrhW-YELXMRdit4gi3W-190" style="edgeStyle=orthogonalEdgeStyle;rounded=0;orthogonalLoop=1;jettySize=auto;html=1;exitX=0.5;exitY=1;exitDx=0;exitDy=0;entryX=0.5;entryY=0;entryDx=0;entryDy=0;" edge="1" parent="1" source="9PrhW-YELXMRdit4gi3W-191" target="9PrhW-YELXMRdit4gi3W-200">
          <mxGeometry relative="1" as="geometry">
            <mxPoint x="750" y="2719.5" as="targetPoint" />
            <Array as="points">
              <mxPoint x="750" y="2750" />
              <mxPoint x="400" y="2750" />
            </Array>
          </mxGeometry>
        </mxCell>
        <mxCell id="9PrhW-YELXMRdit4gi3W-191" value="Удаление отзыва" style="rounded=0;whiteSpace=wrap;html=1;" vertex="1" parent="1">
          <mxGeometry x="690" y="2611.5" width="120" height="60" as="geometry" />
        </mxCell>
        <mxCell id="9PrhW-YELXMRdit4gi3W-192" value="ok_brows_db" style="shape=cylinder3;whiteSpace=wrap;html=1;boundedLbl=1;backgroundOutline=1;size=15;" vertex="1" parent="1">
          <mxGeometry x="520" y="2649" width="130" height="70" as="geometry" />
        </mxCell>
        <mxCell id="9PrhW-YELXMRdit4gi3W-193" value="Ввод данных" style="html=1;strokeWidth=2;shape=manualInput;whiteSpace=wrap;rounded=1;size=26;arcSize=11;" vertex="1" parent="1">
          <mxGeometry x="520" y="2564" width="130" height="70" as="geometry" />
        </mxCell>
        <mxCell id="9PrhW-YELXMRdit4gi3W-194" style="edgeStyle=orthogonalEdgeStyle;rounded=0;orthogonalLoop=1;jettySize=auto;html=1;exitX=0;exitY=0.5;exitDx=0;exitDy=0;entryX=1;entryY=0.5;entryDx=0;entryDy=0;entryPerimeter=0;" edge="1" parent="1" source="9PrhW-YELXMRdit4gi3W-191" target="9PrhW-YELXMRdit4gi3W-192">
          <mxGeometry relative="1" as="geometry" />
        </mxCell>
        <mxCell id="9PrhW-YELXMRdit4gi3W-195" value="" style="group" vertex="1" connectable="0" parent="1">
          <mxGeometry x="855" y="2560" width="130" height="70" as="geometry" />
        </mxCell>
        <mxCell id="9PrhW-YELXMRdit4gi3W-196" value="" style="verticalLabelPosition=bottom;verticalAlign=top;html=1;shape=offPageConnector;rounded=0;size=0.5;rotation=90;" vertex="1" parent="9PrhW-YELXMRdit4gi3W-195">
          <mxGeometry x="30" y="-30" width="70" height="130" as="geometry" />
        </mxCell>
        <mxCell id="9PrhW-YELXMRdit4gi3W-197" value="Ответ пользователю" style="text;html=1;align=center;verticalAlign=middle;whiteSpace=wrap;rounded=0;" vertex="1" parent="9PrhW-YELXMRdit4gi3W-195">
          <mxGeometry x="60" y="20" width="60" height="30" as="geometry" />
        </mxCell>
        <mxCell id="9PrhW-YELXMRdit4gi3W-198" value="ok_brows_db" style="shape=cylinder3;whiteSpace=wrap;html=1;boundedLbl=1;backgroundOutline=1;size=15;" vertex="1" parent="1">
          <mxGeometry x="855" y="2649" width="130" height="70" as="geometry" />
        </mxCell>
        <mxCell id="9PrhW-YELXMRdit4gi3W-199" style="edgeStyle=orthogonalEdgeStyle;rounded=0;orthogonalLoop=1;jettySize=auto;html=1;exitX=1;exitY=0.5;exitDx=0;exitDy=0;entryX=0;entryY=0.5;entryDx=0;entryDy=0;entryPerimeter=0;" edge="1" parent="1" source="9PrhW-YELXMRdit4gi3W-191" target="9PrhW-YELXMRdit4gi3W-198">
          <mxGeometry relative="1" as="geometry" />
        </mxCell>
        <mxCell id="9PrhW-YELXMRdit4gi3W-200" value="Конец" style="ellipse;whiteSpace=wrap;html=1;" vertex="1" parent="1">
          <mxGeometry x="340" y="2780" width="120" height="80" as="geometry" />
        </mxCell>
        <mxCell id="9PrhW-YELXMRdit4gi3W-201" style="edgeStyle=orthogonalEdgeStyle;rounded=0;orthogonalLoop=1;jettySize=auto;html=1;exitX=0;exitY=0.5;exitDx=0;exitDy=0;entryX=1;entryY=0.5;entryDx=0;entryDy=0;" edge="1" parent="1" source="9PrhW-YELXMRdit4gi3W-203" target="9PrhW-YELXMRdit4gi3W-205">
          <mxGeometry relative="1" as="geometry" />
        </mxCell>
        <mxCell id="9PrhW-YELXMRdit4gi3W-202" style="edgeStyle=orthogonalEdgeStyle;rounded=0;orthogonalLoop=1;jettySize=auto;html=1;exitX=1;exitY=0.5;exitDx=0;exitDy=0;entryX=0.5;entryY=1;entryDx=0;entryDy=0;" edge="1" parent="1" source="9PrhW-YELXMRdit4gi3W-203" target="9PrhW-YELXMRdit4gi3W-208">
          <mxGeometry relative="1" as="geometry" />
        </mxCell>
        <mxCell id="9PrhW-YELXMRdit4gi3W-225" style="edgeStyle=orthogonalEdgeStyle;rounded=0;orthogonalLoop=1;jettySize=auto;html=1;exitX=0.5;exitY=1;exitDx=0;exitDy=0;entryX=0.5;entryY=0;entryDx=0;entryDy=0;" edge="1" parent="1" source="9PrhW-YELXMRdit4gi3W-203" target="9PrhW-YELXMRdit4gi3W-216">
          <mxGeometry relative="1" as="geometry" />
        </mxCell>
        <mxCell id="9PrhW-YELXMRdit4gi3W-203" value="Создание записи" style="rounded=0;whiteSpace=wrap;html=1;" vertex="1" parent="1">
          <mxGeometry x="7.5" y="841.5" width="120" height="60" as="geometry" />
        </mxCell>
        <mxCell id="9PrhW-YELXMRdit4gi3W-204" value="ok_brows_db" style="shape=cylinder3;whiteSpace=wrap;html=1;boundedLbl=1;backgroundOutline=1;size=15;" vertex="1" parent="1">
          <mxGeometry x="-162.5" y="879" width="130" height="70" as="geometry" />
        </mxCell>
        <mxCell id="9PrhW-YELXMRdit4gi3W-205" value="Ввод данных" style="html=1;strokeWidth=2;shape=manualInput;whiteSpace=wrap;rounded=1;size=26;arcSize=11;" vertex="1" parent="1">
          <mxGeometry x="-162.5" y="794" width="130" height="70" as="geometry" />
        </mxCell>
        <mxCell id="9PrhW-YELXMRdit4gi3W-206" style="edgeStyle=orthogonalEdgeStyle;rounded=0;orthogonalLoop=1;jettySize=auto;html=1;exitX=0;exitY=0.5;exitDx=0;exitDy=0;entryX=1;entryY=0.5;entryDx=0;entryDy=0;entryPerimeter=0;" edge="1" parent="1" source="9PrhW-YELXMRdit4gi3W-203" target="9PrhW-YELXMRdit4gi3W-204">
          <mxGeometry relative="1" as="geometry" />
        </mxCell>
        <mxCell id="9PrhW-YELXMRdit4gi3W-207" value="" style="group" vertex="1" connectable="0" parent="1">
          <mxGeometry x="172.5" y="790" width="130" height="70" as="geometry" />
        </mxCell>
        <mxCell id="9PrhW-YELXMRdit4gi3W-208" value="" style="verticalLabelPosition=bottom;verticalAlign=top;html=1;shape=offPageConnector;rounded=0;size=0.5;rotation=90;" vertex="1" parent="9PrhW-YELXMRdit4gi3W-207">
          <mxGeometry x="30" y="-30" width="70" height="130" as="geometry" />
        </mxCell>
        <mxCell id="9PrhW-YELXMRdit4gi3W-209" value="Ответ пользователю" style="text;html=1;align=center;verticalAlign=middle;whiteSpace=wrap;rounded=0;" vertex="1" parent="9PrhW-YELXMRdit4gi3W-207">
          <mxGeometry x="60" y="20" width="60" height="30" as="geometry" />
        </mxCell>
        <mxCell id="9PrhW-YELXMRdit4gi3W-210" value="ok_brows_db" style="shape=cylinder3;whiteSpace=wrap;html=1;boundedLbl=1;backgroundOutline=1;size=15;" vertex="1" parent="1">
          <mxGeometry x="172.5" y="879" width="130" height="70" as="geometry" />
        </mxCell>
        <mxCell id="9PrhW-YELXMRdit4gi3W-211" style="edgeStyle=orthogonalEdgeStyle;rounded=0;orthogonalLoop=1;jettySize=auto;html=1;exitX=1;exitY=0.5;exitDx=0;exitDy=0;entryX=0;entryY=0.5;entryDx=0;entryDy=0;entryPerimeter=0;" edge="1" parent="1" source="9PrhW-YELXMRdit4gi3W-203" target="9PrhW-YELXMRdit4gi3W-210">
          <mxGeometry relative="1" as="geometry" />
        </mxCell>
        <mxCell id="9PrhW-YELXMRdit4gi3W-214" style="edgeStyle=orthogonalEdgeStyle;rounded=0;orthogonalLoop=1;jettySize=auto;html=1;exitX=0;exitY=0.5;exitDx=0;exitDy=0;entryX=1;entryY=0.5;entryDx=0;entryDy=0;" edge="1" parent="1" source="9PrhW-YELXMRdit4gi3W-216" target="9PrhW-YELXMRdit4gi3W-218">
          <mxGeometry relative="1" as="geometry" />
        </mxCell>
        <mxCell id="9PrhW-YELXMRdit4gi3W-215" style="edgeStyle=orthogonalEdgeStyle;rounded=0;orthogonalLoop=1;jettySize=auto;html=1;exitX=1;exitY=0.5;exitDx=0;exitDy=0;entryX=0.5;entryY=1;entryDx=0;entryDy=0;" edge="1" parent="1" source="9PrhW-YELXMRdit4gi3W-216" target="9PrhW-YELXMRdit4gi3W-221">
          <mxGeometry relative="1" as="geometry" />
        </mxCell>
        <mxCell id="9PrhW-YELXMRdit4gi3W-226" style="edgeStyle=orthogonalEdgeStyle;rounded=0;orthogonalLoop=1;jettySize=auto;html=1;exitX=0.5;exitY=1;exitDx=0;exitDy=0;entryX=0.5;entryY=0;entryDx=0;entryDy=0;" edge="1" parent="1" source="9PrhW-YELXMRdit4gi3W-216" target="9PrhW-YELXMRdit4gi3W-200">
          <mxGeometry relative="1" as="geometry">
            <Array as="points">
              <mxPoint x="67" y="2750" />
              <mxPoint x="400" y="2750" />
            </Array>
          </mxGeometry>
        </mxCell>
        <mxCell id="9PrhW-YELXMRdit4gi3W-216" value="Создание отзыва" style="rounded=0;whiteSpace=wrap;html=1;" vertex="1" parent="1">
          <mxGeometry x="7.5" y="1011.5" width="120" height="60" as="geometry" />
        </mxCell>
        <mxCell id="9PrhW-YELXMRdit4gi3W-217" value="ok_brows_db" style="shape=cylinder3;whiteSpace=wrap;html=1;boundedLbl=1;backgroundOutline=1;size=15;" vertex="1" parent="1">
          <mxGeometry x="-162.5" y="1049" width="130" height="70" as="geometry" />
        </mxCell>
        <mxCell id="9PrhW-YELXMRdit4gi3W-218" value="Ввод данных" style="html=1;strokeWidth=2;shape=manualInput;whiteSpace=wrap;rounded=1;size=26;arcSize=11;" vertex="1" parent="1">
          <mxGeometry x="-162.5" y="964" width="130" height="70" as="geometry" />
        </mxCell>
        <mxCell id="9PrhW-YELXMRdit4gi3W-219" style="edgeStyle=orthogonalEdgeStyle;rounded=0;orthogonalLoop=1;jettySize=auto;html=1;exitX=0;exitY=0.5;exitDx=0;exitDy=0;entryX=1;entryY=0.5;entryDx=0;entryDy=0;entryPerimeter=0;" edge="1" parent="1" source="9PrhW-YELXMRdit4gi3W-216" target="9PrhW-YELXMRdit4gi3W-217">
          <mxGeometry relative="1" as="geometry" />
        </mxCell>
        <mxCell id="9PrhW-YELXMRdit4gi3W-220" value="" style="group" vertex="1" connectable="0" parent="1">
          <mxGeometry x="172.5" y="960" width="130" height="70" as="geometry" />
        </mxCell>
        <mxCell id="9PrhW-YELXMRdit4gi3W-221" value="" style="verticalLabelPosition=bottom;verticalAlign=top;html=1;shape=offPageConnector;rounded=0;size=0.5;rotation=90;" vertex="1" parent="9PrhW-YELXMRdit4gi3W-220">
          <mxGeometry x="30" y="-30" width="70" height="130" as="geometry" />
        </mxCell>
        <mxCell id="9PrhW-YELXMRdit4gi3W-222" value="Ответ пользователю" style="text;html=1;align=center;verticalAlign=middle;whiteSpace=wrap;rounded=0;" vertex="1" parent="9PrhW-YELXMRdit4gi3W-220">
          <mxGeometry x="60" y="20" width="60" height="30" as="geometry" />
        </mxCell>
        <mxCell id="9PrhW-YELXMRdit4gi3W-223" value="ok_brows_db" style="shape=cylinder3;whiteSpace=wrap;html=1;boundedLbl=1;backgroundOutline=1;size=15;" vertex="1" parent="1">
          <mxGeometry x="172.5" y="1049" width="130" height="70" as="geometry" />
        </mxCell>
        <mxCell id="9PrhW-YELXMRdit4gi3W-224" style="edgeStyle=orthogonalEdgeStyle;rounded=0;orthogonalLoop=1;jettySize=auto;html=1;exitX=1;exitY=0.5;exitDx=0;exitDy=0;entryX=0;entryY=0.5;entryDx=0;entryDy=0;entryPerimeter=0;" edge="1" parent="1" source="9PrhW-YELXMRdit4gi3W-216" target="9PrhW-YELXMRdit4gi3W-223">
          <mxGeometry relative="1" as="geometry" />
        </mxCell>
      </root>
    </mxGraphModel>
  </diagram>
</mxfile>
